<?xml version="1.0" encoding="UTF-8"?>
<svg version="1.1" xmlns="http://www.w3.org/2000/svg" width="203" height="85">
<path d="M0 0 C66.99 0 133.98 0 203 0 C203 28.05 203 56.1 203 85 C136.01 85 69.02 85 0 85 C0 56.95 0 28.9 0 0 Z " fill="#F5F6F7" transform="translate(0,0)"/>
<path d="M0 0 C15.18 0 30.36 0 46 0 C46 0.99 46 1.98 46 3 C45.34 3 44.68 3 44 3 C44 7.62 44 12.24 44 17 C46.31 17 48.62 17 51 17 C51 16.34 51 15.68 51 15 C51.99 15 52.98 15 54 15 C54 15.66 54 16.32 54 17 C54.99 16.67 55.98 16.34 57 16 C58.36597843 13.31701272 58.36597843 13.31701272 59.5 10.125 C61.98915879 3.50319938 61.98915879 3.50319938 65 1 C65.79423861 2.56119422 66.58527123 4.12401964 67.375 5.6875 C67.81585938 6.55761719 68.25671875 7.42773438 68.7109375 8.32421875 C70 11 70 11 71.0390625 13.76953125 C71.78541255 16.16124381 71.78541255 16.16124381 74 17 C74 17.66 74 18.32 74 19 C72.02 19 70.04 19 68 19 C68 16.69 68 14.38 68 12 C65.69 12 63.38 12 61 12 C61 14.64 61 17.28 61 20 C56.38 20.33 51.76 20.66 47 21 C52.94 21.33 58.88 21.66 65 22 C65 23.65 65 25.3 65 27 C64.01 27 63.02 27 62 27 C62 26.34 62 25.68 62 25 C59.69 25 57.38 25 55 25 C55 26.98 55 28.96 55 31 C57.64 31 60.28 31 63 31 C63 31.66 63 32.32 63 33 C60.36 33 57.72 33 55 33 C55 34.98 55 36.96 55 39 C57.31 39 59.62 39 62 39 C62 38.01 62 37.02 62 36 C62.99 36 63.98 36 65 36 C65.22237877 38.41611533 65.42832339 40.8317717 65.625 43.25 C65.68945312 43.93191406 65.75390625 44.61382812 65.8203125 45.31640625 C66.12219523 49.20314638 66.01932128 51.65549913 64 55 C64.29805007 57.19747131 64.29805007 57.19747131 65 59 C65.99 59 66.98 59 68 59 C68 59.66 68 60.32 68 61 C66.35 60.67 64.7 60.34 63 60 C62.34 57.69 61.68 55.38 61 53 C60.01 53 59.02 53 58 53 C58 54.98 58 56.96 58 59 C58.99 59 59.98 59 61 59 C61 59.66 61 60.32 61 61 C60.39414063 60.98839844 59.78828125 60.97679687 59.1640625 60.96484375 C54.5370495 60.91501438 50.20018878 61.09081844 45.625 61.8125 C41.37091002 62.24727335 41.37091002 62.24727335 38.375 60.25 C36.36977206 55.51037032 36.68007105 51.07442856 37 46 C35.35 46.33 33.7 46.66 32 47 C32 46.34 32 45.68 32 45 C30.68 45 29.36 45 28 45 C28.495 52.92 28.495 52.92 29 61 C27.35 61 25.7 61 24 61 C24.33 56.05 24.66 51.1 25 46 C23.02 46.33 21.04 46.66 19 47 C17.515 46.505 17.515 46.505 16 46 C16.495 53.425 16.495 53.425 17 61 C15.35 61 13.7 61 12 61 C12.33 55.72 12.66 50.44 13 45 C12.34 45 11.68 45 11 45 C11 44.01 11 43.02 11 42 C12.32 42 13.64 42 15 42 C15 41.01 15 40.02 15 39 C15.66 39 16.32 39 17 39 C17.18175781 38.43152344 17.36351562 37.86304688 17.55078125 37.27734375 C18.34330741 34.84286597 19.16622256 32.42064417 20 30 C20.22816406 29.31164062 20.45632812 28.62328125 20.69140625 27.9140625 C21.89062215 24.66590056 22.58190268 23.22363345 25.6875 21.5625 C26.450625 21.376875 27.21375 21.19125 28 21 C26.515 20.505 26.515 20.505 25 20 C25 15.38 25 10.76 25 6 C24.71125 7.258125 24.4225 8.51625 24.125 9.8125 C23.42696461 12.8539399 22.79553415 14.30669878 21 17 C20.34 17 19.68 17 19 17 C18.505 18.485 18.505 18.485 18 20 C16.35 20 14.7 20 13 20 C13 22.31 13 24.62 13 27 C12.34 27 11.68 27 11 27 C11 26.34 11 25.68 11 25 C9.68 25 8.36 25 7 25 C7 29.62 7 34.24 7 39 C7.66 39 8.32 39 9 39 C9 39.66 9 40.32 9 41 C6.69 41 4.38 41 2 41 C2 40.34 2 39.68 2 39 C2.66 39 3.32 39 4 39 C4 34.38 4 29.76 4 25 C3.01 25 2.02 25 1 25 C1 25.66 1 26.32 1 27 C0.01 27 -0.98 27 -2 27 C-2 26.34 -2 25.68 -2 25 C-2.99 25 -3.98 25 -5 25 C-5 29.62 -5 34.24 -5 39 C-4.34 39 -3.68 39 -3 39 C-3.33 39.99 -3.66 40.98 -4 42 C-5.32 42 -6.64 42 -8 42 C-7.32904297 42.76183594 -7.32904297 42.76183594 -6.64453125 43.5390625 C-3.03713058 47.64642275 0.52114925 51.78321121 4 56 C4.33 52.37 4.66 48.74 5 45 C4.34 45 3.68 45 3 45 C3 44.34 3 43.68 3 43 C4.98 43 6.96 43 9 43 C9 43.66 9 44.32 9 45 C8.34 45 7.68 45 7 45 C7 50.28 7 55.56 7 61 C3.26977613 59.13488807 1.93698709 58.06986999 -0.625 55 C-2.3733168 52.92339664 -4.07962765 50.92037235 -6 49 C-6.495 53.95 -6.495 53.95 -7 59 C-6.34 59 -5.68 59 -5 59 C-5 59.99 -5 60.98 -5 62 C-9.29 62 -13.58 62 -18 62 C-18.71614583 59.94921875 -19.43229167 57.8984375 -20.1484375 55.84765625 C-20.85271413 53.81317884 -20.85271413 53.81317884 -23 53 C-23 54.98 -23 56.96 -23 59 C-22.01 59 -21.02 59 -20 59 C-20 59.66 -20 60.32 -20 61 C-21.98 61 -23.96 61 -26 61 C-25.67 55.72 -25.34 50.44 -25 45 C-26.65 45 -28.3 45 -30 45 C-29.93039063 46.33804688 -29.93039063 46.33804688 -29.859375 47.703125 C-29.80523437 49.45882812 -29.80523437 49.45882812 -29.75 51.25 C-29.70359375 52.41015625 -29.6571875 53.5703125 -29.609375 54.765625 C-30 58 -30 58 -31.828125 60.38671875 C-34 62 -34 62 -37 62.5625 C-40 62 -40 62 -42.375 60.1875 C-44.75758003 55.51397764 -44.32458822 51.14832988 -44 46 C-44.86625 46.185625 -45.7325 46.37125 -46.625 46.5625 C-50.05152628 47.00667933 -52.64212371 46.71954492 -56 46 C-56 47.65 -56 49.3 -56 51 C-53.36 51 -50.72 51 -48 51 C-48 51.66 -48 52.32 -48 53 C-50.64 53 -53.28 53 -56 53 C-56 54.98 -56 56.96 -56 59 C-55.34 59 -54.68 59 -54 59 C-54 59.66 -54 60.32 -54 61 C-55.98 61 -57.96 61 -60 61 C-59.67 55.72 -59.34 50.44 -59 45 C-59.66 45 -60.32 45 -61 45 C-61 43.02 -61 41.04 -61 39 C-60.01 39 -59.02 39 -58 39 C-58 34.38 -58 29.76 -58 25 C-58.66 25 -59.32 25 -60 25 C-60 22.36 -60 19.72 -60 17 C-59.34 17 -58.68 17 -58 17 C-58 12.38 -58 7.76 -58 3 C-58.66 3 -59.32 3 -60 3 C-60 2.34 -60 1.68 -60 1 C-56.20450741 1.54581199 -54.69020705 3.05409295 -52.25 5.9375 C-51.32960938 7.00291016 -51.32960938 7.00291016 -50.390625 8.08984375 C-49 10 -49 10 -49 12 C-48.34 12 -47.68 12 -47 12 C-46.773125 11.484375 -46.54625 10.96875 -46.3125 10.4375 C-45.1517367 8.28179673 -43.92881151 6.27889028 -42.5625 4.25 C-42.15128906 3.63640625 -41.74007812 3.0228125 -41.31640625 2.390625 C-40.88199219 1.93171875 -40.44757813 1.4728125 -40 1 C-39.01 1 -38.02 1 -37 1 C-37 1.66 -37 2.32 -37 3 C-37.66 3 -38.32 3 -39 3 C-39 7.62 -39 12.24 -39 17 C-35.535 16.505 -35.535 16.505 -32 16 C-31.7525 15.195625 -31.505 14.39125 -31.25 13.5625 C-29.73921353 9.25675857 -27.89811144 5.14635993 -26 1 C-25.34 1 -24.68 1 -24 1 C-23.18395001 2.9151579 -22.37229368 4.83218834 -21.5625 6.75 C-20.88380859 8.35101563 -20.88380859 8.35101563 -20.19140625 9.984375 C-19.26020447 12.3413841 -18.5215928 14.52992835 -18 17 C-17.34 17 -16.68 17 -16 17 C-16 17.99 -16 18.98 -16 20 C-16.99 20 -17.98 20 -19 20 C-19 20.66 -19 21.32 -19 22 C-18.071875 22.4640625 -18.071875 22.4640625 -17.125 22.9375 C-15.75 23.625 -14.375 24.3125 -13 25 C-12.875 27.375 -12.875 27.375 -13 30 C-13.66 30.66 -14.32 31.32 -15 32 C-14.67958603 34.60280568 -14.67958603 34.60280568 -14 37 C-11.03 37.495 -11.03 37.495 -8 38 C-8 33.71 -8 29.42 -8 25 C-8.66 25 -9.32 25 -10 25 C-10 24.01 -10 23.02 -10 22 C-5.05 21.67 -0.1 21.34 5 21 C3.35 19.35 1.7 17.7 0 16 C-1.845735 13.91383859 -3.64807195 11.79650936 -5.44921875 9.671875 C-6.91350467 7.89673637 -6.91350467 7.89673637 -9 7 C-8.505 12.94 -8.505 12.94 -8 19 C-9.98 19 -11.96 19 -14 19 C-14 18.34 -14 17.68 -14 17 C-13.34 17 -12.68 17 -12 17 C-12 12.38 -12 7.76 -12 3 C-12.66 3 -13.32 3 -14 3 C-14 2.34 -14 1.68 -14 1 C-9.71905751 1.30082299 -7.81251971 2.81716516 -5.00585938 5.99804688 C-4.57080078 6.51431641 -4.13574219 7.03058594 -3.6875 7.5625 C-3.23310547 8.08263672 -2.77871094 8.60277344 -2.31054688 9.13867188 C-1.19660757 10.41677066 -0.09685112 11.70720655 1 13 C1.33 9.7 1.66 6.4 2 3 C1.34 3 0.68 3 0 3 C0 2.01 0 1.02 0 0 Z " fill="#C5D7EE" transform="translate(118,0)"/>
<path d="M0 0 C3.08459139 2.57199165 4.1393836 5.42222066 5.5625 9.125 C6.87014912 13.35422604 6.87014912 13.35422604 10 16 C10 16.66 10 17.32 10 18 C8.02 18 6.04 18 4 18 C4 15.69 4 13.38 4 11 C1.69 11 -0.62 11 -3 11 C-3 13.64 -3 16.28 -3 19 C-7.62 19.33 -12.24 19.66 -17 20 C-11.06 20.33 -5.12 20.66 1 21 C1 22.65 1 24.3 1 26 C0.01 26 -0.98 26 -2 26 C-2 25.34 -2 24.68 -2 24 C-4.31 24 -6.62 24 -9 24 C-9 25.98 -9 27.96 -9 30 C-6.36 30 -3.72 30 -1 30 C-1 30.66 -1 31.32 -1 32 C-3.64 32 -6.28 32 -9 32 C-9 33.98 -9 35.96 -9 38 C-6.69 38 -4.38 38 -2 38 C-2 37.01 -2 36.02 -2 35 C-1.01 35 -0.02 35 1 35 C1.22237877 37.41611533 1.42832339 39.8317717 1.625 42.25 C1.68945312 42.93191406 1.75390625 43.61382812 1.8203125 44.31640625 C2.12219523 48.20314638 2.01932128 50.65549913 0 54 C0.29805007 56.19747131 0.29805007 56.19747131 1 58 C1.99 58 2.98 58 4 58 C4 58.66 4 59.32 4 60 C2.35 59.67 0.7 59.34 -1 59 C-1.66 56.69 -2.32 54.38 -3 52 C-3.99 52 -4.98 52 -6 52 C-6 53.98 -6 55.96 -6 58 C-5.01 58 -4.02 58 -3 58 C-3 58.66 -3 59.32 -3 60 C-3.60585937 59.98839844 -4.21171875 59.97679687 -4.8359375 59.96484375 C-9.4629505 59.91501438 -13.79981122 60.09081844 -18.375 60.8125 C-22.62908998 61.24727335 -22.62908998 61.24727335 -25.625 59.25 C-27.63022794 54.51037032 -27.31992895 50.07442856 -27 45 C-29.475 45.495 -29.475 45.495 -32 46 C-32 45.34 -32 44.68 -32 44 C-33.32 44 -34.64 44 -36 44 C-35.505 51.92 -35.505 51.92 -35 60 C-36.65 60 -38.3 60 -40 60 C-39.67 55.05 -39.34 50.1 -39 45 C-41.97 45.495 -41.97 45.495 -45 46 C-45.99 45.67 -46.98 45.34 -48 45 C-47.67 49.95 -47.34 54.9 -47 60 C-48.65 60 -50.3 60 -52 60 C-51.67 54.72 -51.34 49.44 -51 44 C-51.66 44 -52.32 44 -53 44 C-53 43.01 -53 42.02 -53 41 C-51.68 41 -50.36 41 -49 41 C-49 40.01 -49 39.02 -49 38 C-48.34 38 -47.68 38 -47 38 C-46.81824219 37.43152344 -46.63648438 36.86304688 -46.44921875 36.27734375 C-45.65669259 33.84286597 -44.83377744 31.42064417 -44 29 C-43.77183594 28.31164062 -43.54367188 27.62328125 -43.30859375 26.9140625 C-42.10937785 23.66590056 -41.41809732 22.22363345 -38.3125 20.5625 C-37.549375 20.376875 -36.78625 20.19125 -36 20 C-36.99 19.34 -37.98 18.68 -39 18 C-34.71 18 -30.42 18 -26 18 C-26 16.68 -26 15.36 -26 14 C-26.66 14 -27.32 14 -28 14 C-28 14.66 -28 15.32 -28 16 C-30.31 16 -32.62 16 -35 16 C-35 14.02 -35 12.04 -35 10 C-32.36 10 -29.72 10 -27 10 C-27 9.34 -27 8.68 -27 8 C-29.64 8 -32.28 8 -35 8 C-35 6.02 -35 4.04 -35 2 C-32.69 2 -30.38 2 -28 2 C-28 2.66 -28 3.32 -28 4 C-27.01 4 -26.02 4 -25 4 C-25 3.34 -25 2.68 -25 2 C-24.34 2 -23.68 2 -23 2 C-22.97307516 4.29160319 -22.95363876 6.58329546 -22.9375 8.875 C-22.92589844 10.15117187 -22.91429687 11.42734375 -22.90234375 12.7421875 C-23 16 -23 16 -24 18 C-19.71 18 -15.42 18 -11 18 C-10.67 16.68 -10.34 15.36 -10 14 C-10 14.66 -10 15.32 -10 16 C-6.77361448 15.31643715 -6.77361448 15.31643715 -5.68359375 12.3828125 C-5.06677734 10.77019531 -5.06677734 10.77019531 -4.4375 9.125 C-3.13936896 5.7684618 -2.0019035 3.00285525 0 0 Z " fill="#E2ECF7" transform="translate(182,1)"/>
<path d="M0 0 C12.87 0 25.74 0 39 0 C39 14.85 39 29.7 39 45 C38.67 44.34 38.34 43.68 38 43 C33.05 43 28.1 43 23 43 C22.67 43.66 22.34 44.32 22 45 C21.01 45 20.02 45 19 45 C19 42.03 19 39.06 19 36 C18.01 36 17.02 36 16 36 C16 36.99 16 37.98 16 39 C13.69 39 11.38 39 9 39 C9 37.02 9 35.04 9 33 C11.64 33 14.28 33 17 33 C17 32.34 17 31.68 17 31 C14.36 31 11.72 31 9 31 C9 29.02 9 27.04 9 25 C11.31 25 13.62 25 16 25 C16 25.66 16 26.32 16 27 C16.99 27 17.98 27 19 27 C19 25.35 19 23.7 19 22 C17.10314453 22.03480469 17.10314453 22.03480469 15.16796875 22.0703125 C13.5078184 22.08907126 11.84766167 22.10727135 10.1875 22.125 C9.35412109 22.14175781 8.52074219 22.15851562 7.66210938 22.17578125 C6.85966797 22.18222656 6.05722656 22.18867188 5.23046875 22.1953125 C4.12288208 22.21102295 4.12288208 22.21102295 2.99291992 22.22705078 C1 22 1 22 -2 20 C3.61 20 9.22 20 15 20 C14.67 18.02 14.34 16.04 14 14 C14.33 13.34 14.66 12.68 15 12 C17.31 12 19.62 12 22 12 C23.125 16.75 23.125 16.75 22 19 C23.98 19 25.96 19 28 19 C28 18.34 28 17.68 28 17 C27.01 16.67 26.02 16.34 25 16 C23.80369056 13.64522059 22.78047329 11.38252884 21.8125 8.9375 C21.53986328 8.27427734 21.26722656 7.61105469 20.98632812 6.92773438 C20.3143914 5.28915183 19.65590372 3.64506597 19 2 C16.51372483 5.0622744 14.90010596 8.1457054 13.3125 11.75 C12.87550781 12.73484375 12.43851563 13.7196875 11.98828125 14.734375 C11.66214844 15.48203125 11.33601562 16.2296875 11 17 C10.01 17 9.02 17 8 17 C8 16.34 8 15.68 8 15 C7.01 15 6.02 15 5 15 C5 15.66 5 16.32 5 17 C2.69 17 0.38 17 -2 17 C-2 12.38 -2 7.76 -2 3 C-1.34 3 -0.68 3 0 3 C0 2.01 0 1.02 0 0 Z " fill="#F9FBFD" transform="translate(164,0)"/>
<path d="M0 0 C5.09055605 -0.04586087 10.1803982 -0.08570058 15.27099609 -0.10986328 C17.00344265 -0.11993376 18.73587216 -0.13359089 20.46826172 -0.15087891 C22.95544639 -0.17508162 25.44240675 -0.18647239 27.9296875 -0.1953125 C28.70682098 -0.20563507 29.48395447 -0.21595764 30.28463745 -0.22659302 C32.19125493 -0.22699271 34.09731036 -0.1223214 36 0 C38 2 38 2 39 4.5625 C39.74870114 7.14841441 39.74870114 7.14841441 42 8 C42.85992684 18.73953078 42.85992684 18.73953078 39.8125 22.625 C37.01433211 24.98789733 35.60555003 25.79396857 32 26 C32 27.32 32 28.64 32 30 C31.01 30 30.02 30 29 30 C29 29.01 29 28.02 29 27 C20.75 27 12.5 27 4 27 C4 27.99 4 28.98 4 30 C3.34 30 2.68 30 2 30 C2 28.68 2 27.36 2 26 C1.34 26 0.68 26 0 26 C0 17.42 0 8.84 0 0 Z " fill="#3F6EBC" transform="translate(0,32)"/>
<path d="M0 0 C1.60488281 0.03383789 1.60488281 0.03383789 3.2421875 0.06835938 C5.87124407 0.12704367 8.49738582 0.2090882 11.125 0.3125 C11.125 1.9625 11.125 3.6125 11.125 5.3125 C10.135 5.3125 9.145 5.3125 8.125 5.3125 C8.125 4.6525 8.125 3.9925 8.125 3.3125 C5.815 3.3125 3.505 3.3125 1.125 3.3125 C1.125 5.2925 1.125 7.2725 1.125 9.3125 C3.765 9.3125 6.405 9.3125 9.125 9.3125 C9.125 9.9725 9.125 10.6325 9.125 11.3125 C6.485 11.3125 3.845 11.3125 1.125 11.3125 C1.125 13.2925 1.125 15.2725 1.125 17.3125 C3.435 17.3125 5.745 17.3125 8.125 17.3125 C8.125 16.3225 8.125 15.3325 8.125 14.3125 C9.115 14.3125 10.105 14.3125 11.125 14.3125 C11.34737877 16.72861533 11.55332339 19.1442717 11.75 21.5625 C11.81445312 22.24441406 11.87890625 22.92632812 11.9453125 23.62890625 C12.24719523 27.51564638 12.14432128 29.96799913 10.125 33.3125 C10.42305007 35.50997131 10.42305007 35.50997131 11.125 37.3125 C12.115 37.3125 13.105 37.3125 14.125 37.3125 C14.125 37.9725 14.125 38.6325 14.125 39.3125 C12.475 38.9825 10.825 38.6525 9.125 38.3125 C8.135 34.8475 8.135 34.8475 7.125 31.3125 C6.135 31.3125 5.145 31.3125 4.125 31.3125 C4.125 33.2925 4.125 35.2725 4.125 37.3125 C5.115 37.3125 6.105 37.3125 7.125 37.3125 C7.125 37.9725 7.125 38.6325 7.125 39.3125 C6.51914063 39.30089844 5.91328125 39.28929687 5.2890625 39.27734375 C-0.16921091 39.21856234 -5.35152875 39.52947648 -10.74609375 40.38671875 C-12.875 40.3125 -12.875 40.3125 -14.6484375 39.28125 C-16.5282528 36.26396685 -16.1590172 33.63179162 -16.0625 30.125 C-16.03542969 28.85269531 -16.00835937 27.58039062 -15.98046875 26.26953125 C-15.94566406 25.29371094 -15.91085938 24.31789063 -15.875 23.3125 C-16.535 23.3125 -17.195 23.3125 -17.875 23.3125 C-17.875 22.6525 -17.875 21.9925 -17.875 21.3125 C-15.895 21.3125 -13.915 21.3125 -11.875 21.3125 C-11.875 21.9725 -11.875 22.6325 -11.875 23.3125 C-12.535 23.3125 -13.195 23.3125 -13.875 23.3125 C-13.545 27.6025 -13.215 31.8925 -12.875 36.3125 C-10.895 36.3125 -8.915 36.3125 -6.875 36.3125 C-6.84787847 34.395912 -6.82854903 32.4792127 -6.8125 30.5625 C-6.80089844 29.49515625 -6.78929687 28.4278125 -6.77734375 27.328125 C-6.85989913 24.77881499 -7.12882442 22.73316409 -7.875 20.3125 C-8.596875 20.250625 -9.31875 20.18875 -10.0625 20.125 C-13.96963435 18.9962723 -15.47855847 17.59904838 -17.875 14.3125 C-18.64573295 11.13754039 -18.91470281 8.42627661 -17.875 5.3125 C-12.77350536 -0.81102583 -7.57350043 -0.30312656 0 0 Z " fill="#E0EBF6" transform="translate(171.875,21.6875)"/>
<path d="M0 0 C3.79549259 0.54581199 5.30979295 2.05409295 7.75 4.9375 C8.67039062 6.00291016 8.67039062 6.00291016 9.609375 7.08984375 C11 9 11 9 11 11 C11.66 11 12.32 11 13 11 C13.226875 10.484375 13.45375 9.96875 13.6875 9.4375 C14.8482633 7.28179673 16.07118849 5.27889028 17.4375 3.25 C17.84871094 2.63640625 18.25992188 2.0228125 18.68359375 1.390625 C19.11800781 0.93171875 19.55242187 0.4728125 20 0 C20.99 0 21.98 0 23 0 C23 0.66 23 1.32 23 2 C22.34 2 21.68 2 21 2 C21 6.62 21 11.24 21 16 C24.465 15.505 24.465 15.505 28 15 C28.2475 14.195625 28.495 13.39125 28.75 12.5625 C30.26078647 8.25675857 32.10188856 4.14635993 34 0 C34.66 0 35.32 0 36 0 C36.81604999 1.9151579 37.62770632 3.83218834 38.4375 5.75 C39.11619141 7.35101563 39.11619141 7.35101563 39.80859375 8.984375 C40.73979553 11.3413841 41.4784072 13.52992835 42 16 C42.66 16 43.32 16 44 16 C44 16.99 44 17.98 44 19 C43.01 19 42.02 19 41 19 C41 19.66 41 20.32 41 21 C41.66 21.33 42.32 21.66 43 22 C40.36 22 37.72 22 35 22 C35.495 22.99 35.495 22.99 36 24 C36.07116382 26.37402501 36.08409085 28.75000677 36.0625 31.125 C36.05347656 32.40632813 36.04445312 33.68765625 36.03515625 35.0078125 C36.02355469 35.99523438 36.01195312 36.98265625 36 38 C35.34 38 34.68 38 34 38 C34 37.34 34 36.68 34 36 C33.01 36 32.02 36 31 36 C31 36.66 31 37.32 31 38 C28.69 38 26.38 38 24 38 C24 36.02 24 34.04 24 32 C26.64 32 29.28 32 32 32 C32 31.34 32 30.68 32 30 C29.36 30 26.72 30 24 30 C24 28.02 24 26.04 24 24 C26.31 24 28.62 24 31 24 C31 24.66 31 25.32 31 26 C31.66 26 32.32 26 33 26 C33 24.35 33 22.7 33 21 C26.07 21 19.14 21 12 21 C12 21.99 12 22.98 12 24 C12.66 24 13.32 24 14 24 C14 25.98 14 27.96 14 30 C10.7 30 7.4 30 4 30 C4 28.02 4 26.04 4 24 C4.66 24 5.32 24 6 24 C6 23.34 6 22.68 6 22 C4.02 22 2.04 22 0 22 C0 20.02 0 18.04 0 16 C0.66 16 1.32 16 2 16 C2 11.38 2 6.76 2 2 C1.34 2 0.68 2 0 2 C0 1.34 0 0.68 0 0 Z " fill="#E5EFF8" transform="translate(58,1)"/>
<path d="M0 0 C11.88 0 23.76 0 36 0 C36 0.99 36 1.98 36 3 C36.66 3 37.32 3 38 3 C38 6.63 38 10.26 38 14 C34.44185226 11.06976069 31.13961113 8.33624031 28.3125 4.6875 C26.283892 1.89675431 26.283892 1.89675431 23.6875 1.125 C22.8521875 1.063125 22.8521875 1.063125 22 1 C22 1.66 22 2.32 22 3 C22.66 3 23.32 3 24 3 C24 7.62 24 12.24 24 17 C23.34 17 22.68 17 22 17 C22 17.66 22 18.32 22 19 C23.98 19 25.96 19 28 19 C27.67 18.34 27.34 17.68 27 17 C26.93003986 15.29297265 26.91559846 13.58331997 26.9375 11.875 C26.94652344 10.96492187 26.95554687 10.05484375 26.96484375 9.1171875 C26.97644531 8.41851562 26.98804687 7.71984375 27 7 C30.35934832 8.43124553 32.31792827 10.17728304 34.6875 12.9375 C35.28949219 13.62714844 35.89148438 14.31679687 36.51171875 15.02734375 C38 17 38 17 39 20 C41.97 20.33 44.94 20.66 48 21 C48 21.33 48 21.66 48 22 C40.74 22 33.48 22 26 22 C26 22.99 26 23.98 26 25 C26.66 25 27.32 25 28 25 C28 29.29 28 33.58 28 38 C26.02 38 24.04 38 22 38 C21.34 37.34 20.68 36.68 20 36 C20.42530343 32.17226914 21.73569964 28.6243277 23 25 C22.071875 24.5359375 22.071875 24.5359375 21.125 24.0625 C19.75 23.375 18.375 22.6875 17 22 C17 21.34 17 20.68 17 20 C17.99 20 18.98 20 20 20 C20 19.01 20 18.02 20 17 C19.34 17 18.68 17 18 17 C15.13965435 11.66068812 13.26869235 6.92056432 12 1 C8.97276141 2.51361929 8.6682877 4.84767178 7.4375 7.9375 C5.01212121 13.97575758 5.01212121 13.97575758 4 16 C0.9375 16.625 0.9375 16.625 -2 17 C-2.05553449 15.66717225 -2.09346189 14.33361135 -2.125 13 C-2.14820312 12.2575 -2.17140625 11.515 -2.1953125 10.75 C-2 8 -2 8 0 0 Z " fill="#F3F8FB" transform="translate(82,0)"/>
<path d="M0 0 C15.18 0 30.36 0 46 0 C46 0.99 46 1.98 46 3 C45.34 3 44.68 3 44 3 C44 7.62 44 12.24 44 17 C46.31 17 48.62 17 51 17 C51 16.34 51 15.68 51 15 C51.66 15 52.32 15 53 15 C53 16.32 53 17.64 53 19 C48.71 19 44.42 19 40 19 C40.33 13.72 40.66 8.44 41 3 C40.34 3 39.68 3 39 3 C39 3.66 39 4.32 39 5 C38.01 5 37.02 5 36 5 C36 4.34 36 3.68 36 3 C33.69 3 31.38 3 29 3 C29 4.98 29 6.96 29 9 C31.64 9 34.28 9 37 9 C37 9.66 37 10.32 37 11 C34.36 11 31.72 11 29 11 C29 12.98 29 14.96 29 17 C31.31 17 33.62 17 36 17 C36 16.34 36 15.68 36 15 C36.66 15 37.32 15 38 15 C38 16.32 38 17.64 38 19 C33.71 19 29.42 19 25 19 C25 14.71 25 10.42 25 6 C24.7525 7.2375 24.505 8.475 24.25 9.75 C23.31484681 13.52401107 22.12965347 15.55495822 19 18 C15.78548731 19.60725635 12.56387464 19.05748185 9 19 C9 18.34 9 17.68 9 17 C8.34 17 7.68 17 7 17 C7 17.66 7 18.32 7 19 C6.34 19 5.68 19 5 19 C5 13.72 5 8.44 5 3 C5.66 3 6.32 3 7 3 C7 2.34 7 1.68 7 1 C5.02 1 3.04 1 1 1 C0.67 1.66 0.34 2.32 0 3 C0 2.01 0 1.02 0 0 Z " fill="#BDD2F1" transform="translate(118,0)"/>
<path d="M0 0 C0.33 0 0.66 0 1 0 C1.02703381 1.93742341 1.04641125 3.87495479 1.0625 5.8125 C1.07410156 6.89144531 1.08570313 7.97039063 1.09765625 9.08203125 C1 12 1 12 0 15 C1.32 15.33 2.64 15.66 4 16 C3.34 16.66 2.68 17.32 2 18 C0.68 18 -0.64 18 -2 18 C-2.18175781 18.56847656 -2.36351562 19.13695313 -2.55078125 19.72265625 C-4.14084634 24.60701003 -5.90459778 29.31029027 -8 34 C-8.66 34 -9.32 34 -10 34 C-10 34.99 -10 35.98 -10 37 C-11.32 37 -12.64 37 -14 37 C-14 37.99 -14 38.98 -14 40 C-14.66 40 -15.32 40 -16 40 C-16 39.34 -16 38.68 -16 38 C-17.98 38 -19.96 38 -22 38 C-22 38.66 -22 39.32 -22 40 C-21.34 40 -20.68 40 -20 40 C-20 43.96 -20 47.92 -20 52 C-21.11979242 50.88020758 -22.23889873 49.75972433 -23.35546875 48.63671875 C-24.5980685 47.40002209 -25.85283833 46.17553706 -27.11328125 44.95703125 C-27.83902344 44.24933594 -28.56476563 43.54164062 -29.3125 42.8125 C-30.35857422 41.80123047 -30.35857422 41.80123047 -31.42578125 40.76953125 C-33 39 -33 39 -33 37 C-32.360625 36.87625 -31.72125 36.7525 -31.0625 36.625 C-30.381875 36.41875 -29.70125 36.2125 -29 36 C-28.67 35.34 -28.34 34.68 -28 34 C-28.66 34 -29.32 34 -30 34 C-30 29.38 -30 24.76 -30 20 C-29.01 20 -28.02 20 -27 20 C-27 20.66 -27 21.32 -27 22 C-26.01 22 -25.02 22 -24 22 C-24 21.34 -24 20.68 -24 20 C-23.01 20 -22.02 20 -21 20 C-21 24.62 -21 29.24 -21 34 C-21.66 34 -22.32 34 -23 34 C-23 34.66 -23 35.32 -23 36 C-20.69 36 -18.38 36 -16 36 C-16 35.34 -16 34.68 -16 34 C-16.66 34 -17.32 34 -18 34 C-18 29.38 -18 24.76 -18 20 C-16.68 20 -15.36 20 -14 20 C-14 20.66 -14 21.32 -14 22 C-13.34 22 -12.68 22 -12 22 C-12 19.69 -12 17.38 -12 15 C-11.2575 14.938125 -10.515 14.87625 -9.75 14.8125 C-5.98814959 13.7010442 -5.07420998 12.31873596 -3 9 C-1.84069265 6.04227996 -0.87775664 3.05219923 0 0 Z " fill="#F1F7FB" transform="translate(143,5)"/>
<path d="M0 0 C0.66 0 1.32 0 2 0 C1.34 2.97 0.68 5.94 0 9 C0.99 6.36 1.98 3.72 3 1 C3.66 1 4.32 1 5 1 C5 2.65 5 4.3 5 6 C5.66 5.01 6.32 4.02 7 3 C8.32 3 9.64 3 11 3 C11.495 4.98 11.495 4.98 12 7 C12.66 6.01 13.32 5.02 14 4 C16.625 3.8125 16.625 3.8125 19 4 C19.99 6.475 19.99 6.475 21 9 C18.75 11.5625 18.75 11.5625 16 14 C13.6875 13.8125 13.6875 13.8125 12 13 C12.33 12.34 12.66 11.68 13 11 C11.68 11 10.36 11 9 11 C9.33 9.02 9.66 7.04 10 5 C7.7522025 7.05233685 6.9977758 8.00667261 6 11 C0.72 11 -4.56 11 -10 11 C-9.67 9.02 -9.34 7.04 -9 5 C-11.2477975 7.05233685 -12.0022242 8.00667261 -13 11 C-18.94 11 -24.88 11 -31 11 C-30.34 10.67 -29.68 10.34 -29 10 C-29.33 9.01 -29.66 8.02 -30 7 C-30.6496875 7.99 -30.6496875 7.99 -31.3125 9 C-31.869375 9.66 -32.42625 10.32 -33 11 C-33.99 11 -34.98 11 -36 11 C-35.34 9.02 -34.68 7.04 -34 5 C-37.0109362 7.0072908 -37.63016497 7.83884224 -39 11 C-45 11 -51 11 -57 11 C-56.125 3.25 -56.125 3.25 -55 1 C-50.32307692 2.47692308 -50.32307692 2.47692308 -48.6875 5.125 C-48.460625 5.74375 -48.23375 6.3625 -48 7 C-47.01 5.68 -46.02 4.36 -45 3 C-43.68 3.33 -42.36 3.66 -41 4 C-40.67 5.32 -40.34 6.64 -40 8 C-39.34 6.35 -38.68 4.7 -38 3 C-30 3 -30 3 -27.5625 3.5625 C-24.91116318 4.01516726 -23.53094127 3.75928238 -21 3 C-18 3 -18 3 -15.625 3.5625 C-12.77236091 4.03793985 -10.78002633 3.71486391 -8 3 C-7.505 4.98 -7.505 4.98 -7 7 C-6.34 5.68 -5.68 4.36 -5 3 C-3.68 3 -2.36 3 -1 3 C-0.67 2.01 -0.34 1.02 0 0 Z " fill="#E4C390" transform="translate(153,71)"/>
<path d="M0 0 C0.66 0 1.32 0 2 0 C1.67 2.64 1.34 5.28 1 8 C2.65 7.34 4.3 6.68 6 6 C6 6.66 6 7.32 6 8 C8.10483555 7.9669712 10.2091243 7.89755454 12.3125 7.8125 C13.48425781 7.77769531 14.65601563 7.74289063 15.86328125 7.70703125 C19.19875405 7.32416405 19.19875405 7.32416405 20.79296875 4.44921875 C21.19128906 3.64097656 21.58960938 2.83273438 22 2 C22.66 2 23.32 2 24 2 C23.34 3.98 22.68 5.96 22 8 C24.88437779 6.70700306 26.87219421 5.34058637 29 3 C29 4.32 29 5.64 29 7 C34.28 7.33 39.56 7.66 45 8 C45.33 6.35 45.66 4.7 46 3 C46.99 2.67 47.98 2.34 49 2 C48.67 3.98 48.34 5.96 48 8 C53.28 8 58.56 8 64 8 C64.33 6.35 64.66 4.7 65 3 C65.99 2.67 66.98 2.34 68 2 C67.67 3.98 67.34 5.96 67 8 C68.32 7.67 69.64 7.34 71 7 C71 7.99 71 8.98 71 10 C69.13312423 11.86687577 66.45718552 11.12006498 63.97367859 11.12442017 C63.10765518 11.12082489 62.24163177 11.11722961 61.34936523 11.11352539 C59.9885231 11.11374443 59.9885231 11.11374443 58.60018921 11.1139679 C55.58630015 11.11326841 52.57247207 11.10547434 49.55859375 11.09765625 C47.47494033 11.0957922 45.39128646 11.09436824 43.30763245 11.09336853 C37.81176554 11.08954234 32.31592487 11.0797112 26.82006836 11.06866455 C21.21663773 11.0584526 15.61320287 11.05387137 10.00976562 11.04882812 C-0.99350114 11.03808902 -11.99674839 11.02101139 -23 11 C-23 10.01 -23 9.02 -23 8 C-20.63811347 7.36410747 -18.36524918 6.90932131 -15.9375 6.5625 C-12.82455744 6.1634888 -12.82455744 6.1634888 -10 4 C-10 5.32 -10 6.64 -10 8 C-5.03088634 6.87302957 -5.03088634 6.87302957 -1 4 C-0.3574765 1.93125966 -0.3574765 1.93125966 0 0 Z " fill="#FBF7EC" transform="translate(95,74)"/>
<path d="M0 0 C0.99 0.33 1.98 0.66 3 1 C4.38671875 3.87109375 4.38671875 3.87109375 5.6875 7.4375 C6.34298828 9.19900391 6.34298828 9.19900391 7.01171875 10.99609375 C8 14 8 14 8 16 C8.99 16 9.98 16 11 16 C11 18.64 11 21.28 11 24 C10.34 24 9.68 24 9 24 C9 23.34 9 22.68 9 22 C7.68 22 6.36 22 5 22 C5.495 29.92 5.495 29.92 6 38 C4.35 38 2.7 38 1 38 C1.33 33.05 1.66 28.1 2 23 C0.02 23.33 -1.96 23.66 -4 24 C-4.99 23.67 -5.98 23.34 -7 23 C-6.67 27.95 -6.34 32.9 -6 38 C-7.65 38 -9.3 38 -11 38 C-10.67 32.72 -10.34 27.44 -10 22 C-10.66 22 -11.32 22 -12 22 C-12 21.01 -12 20.02 -12 19 C-10.68 19 -9.36 19 -8 19 C-8 18.01 -8 17.02 -8 16 C-7.34 16 -6.68 16 -6 16 C-5.81824219 15.43152344 -5.63648438 14.86304688 -5.44921875 14.27734375 C-3.85915366 9.39298997 -2.09540222 4.68970973 0 0 Z " fill="#E6F0FB" transform="translate(141,23)"/>
<path d="M0 0 C4.28094249 0.30082299 6.18748029 1.81716516 8.99414062 4.99804688 C9.42919922 5.51431641 9.86425781 6.03058594 10.3125 6.5625 C10.76689453 7.08263672 11.22128906 7.60277344 11.68945312 8.13867188 C12.80339243 9.41677066 13.90314888 10.70720655 15 12 C15 8.04 15 4.08 15 0 C16.98 0 18.96 0 21 0 C21 0.66 21 1.32 21 2 C20.34 2 19.68 2 19 2 C19 7.28 19 12.56 19 18 C19.66 18 20.32 18 21 18 C21 17.34 21 16.68 21 16 C21.66 16 22.32 16 23 16 C23 16.66 23 17.32 23 18 C26.3 17.67 29.6 17.34 33 17 C32.67 17.66 32.34 18.32 32 19 C30.35 19 28.7 19 27 19 C27 21.31 27 23.62 27 26 C26.34 26 25.68 26 25 26 C25 25.34 25 24.68 25 24 C23.68 24 22.36 24 21 24 C21 28.62 21 33.24 21 38 C21.66 38 22.32 38 23 38 C23 38.66 23 39.32 23 40 C20.69 40 18.38 40 16 40 C16 39.34 16 38.68 16 38 C16.66 38 17.32 38 18 38 C18 33.38 18 28.76 18 24 C17.01 24 16.02 24 15 24 C15 24.66 15 25.32 15 26 C14.01 26 13.02 26 12 26 C12 25.34 12 24.68 12 24 C11.01 24 10.02 24 9 24 C9 28.62 9 33.24 9 38 C9.66 38 10.32 38 11 38 C11 38.66 11 39.32 11 40 C8.69 40 6.38 40 4 40 C4 39.34 4 38.68 4 38 C4.66 38 5.32 38 6 38 C6 33.38 6 28.76 6 24 C5.34 24 4.68 24 4 24 C4 23.01 4 22.02 4 21 C8.95 20.67 13.9 20.34 19 20 C17.35 18.35 15.7 16.7 14 15 C12.154265 12.91383859 10.35192805 10.79650936 8.55078125 8.671875 C7.08649533 6.89673637 7.08649533 6.89673637 5 6 C5.33 9.96 5.66 13.92 6 18 C4.02 18 2.04 18 0 18 C0 17.34 0 16.68 0 16 C0.66 16 1.32 16 2 16 C2 11.38 2 6.76 2 2 C1.34 2 0.68 2 0 2 C0 1.34 0 0.68 0 0 Z " fill="#BCD0EA" transform="translate(104,1)"/>
<path d="M0 0 C1.875 0.25 1.875 0.25 4 1 C5.72101535 3.58152302 6 4.84918025 6 8 C7.32 8 8.64 8 10 8 C10 7.34 10 6.68 10 6 C9.01 6 8.02 6 7 6 C7.33 5.34 7.66 4.68 8 4 C10.97 4.495 10.97 4.495 14 5 C13.01 5.495 13.01 5.495 12 6 C12 6.66 12 7.32 12 8 C13.98 8 15.96 8 18 8 C16.68 8.33 15.36 8.66 14 9 C14.44730469 9.50789063 14.89460938 10.01578125 15.35546875 10.5390625 C18.96286942 14.64642275 22.52114925 18.78321121 26 23 C26.33 19.37 26.66 15.74 27 12 C26.34 12 25.68 12 25 12 C25 11.34 25 10.68 25 10 C26.98 10 28.96 10 31 10 C31 10.66 31 11.32 31 12 C30.34 12 29.68 12 29 12 C29 17.28 29 22.56 29 28 C25.26977613 26.13488807 23.93698709 25.06986999 21.375 22 C19.6266832 19.92339664 17.92037235 17.92037235 16 16 C15.67 19.3 15.34 22.6 15 26 C15.66 26 16.32 26 17 26 C17 26.99 17 27.98 17 29 C12.71 29 8.42 29 4 29 C4.33 28.34 4.66 27.68 5 27 C6.32 27.33 7.64 27.66 9 28 C9 27.34 9 26.68 9 26 C8.01 26 7.02 26 6 26 C5.34 24.02 4.68 22.04 4 20 C4.66 19.34 5.32 18.68 6 18 C6.39764263 16.01178687 6.73775349 14.01055661 7 12 C3.37 11.34 -0.26 10.68 -4 10 C-3.67 9.34 -3.34 8.68 -3 8 C-1.02 8 0.96 8 3 8 C3 7.34 3 6.68 3 6 C2.01 6 1.02 6 0 6 C0 4.02 0 2.04 0 0 Z " fill="#E1ECF8" transform="translate(96,33)"/>
<path d="M0 0 C9.9 0 19.8 0 30 0 C30 3.63 30 7.26 30 11 C20.1 11 10.2 11 0 11 C0 7.37 0 3.74 0 0 Z " fill="#F7FAFD" transform="translate(2,15)"/>
<path d="M0 0 C0.99 0 1.98 0 3 0 C2.25 5.75 2.25 5.75 0 8 C0.66 8.33 1.32 8.66 2 9 C2.66 7.35 3.32 5.7 4 4 C5.32 4 6.64 4 8 4 C8.495 5.485 8.495 5.485 9 7 C9.33 5.35 9.66 3.7 10 2 C10.99 2 11.98 2 13 2 C13.66 3.32 14.32 4.64 15 6 C15.66 4.35 16.32 2.7 17 1 C17.66 1 18.32 1 19 1 C18.67 2.98 18.34 4.96 18 7 C18.66 7 19.32 7 20 7 C19.34 8.32 18.68 9.64 18 11 C16.02 11 14.04 11 12 11 C11.505 9.515 11.505 9.515 11 8 C10.505 8.495 10.01 8.99 9.5 9.5 C5.88369842 11.66978095 3.17768384 11.20888419 -1 11 C-1 11.99 -1 12.98 -1 14 C-2.32 14 -3.64 14 -5 14 C-5 13.34 -5 12.68 -5 12 C-5.99 11.67 -6.98 11.34 -8 11 C-8.33 10.34 -8.66 9.68 -9 9 C-9.33 9.66 -9.66 10.32 -10 11 C-10.66 10.67 -11.32 10.34 -12 10 C-12 9.01 -12 8.02 -12 7 C-12.66 8.32 -13.32 9.64 -14 11 C-18.29 11 -22.58 11 -27 11 C-27.33 9.35 -27.66 7.7 -28 6 C-26.5625 4.1875 -26.5625 4.1875 -25 3 C-23.68 3.66 -22.36 4.32 -21 5 C-20.34 4.34 -19.68 3.68 -19 3 C-18.01 3 -17.02 3 -16 3 C-15.67 4.32 -15.34 5.64 -15 7 C-14.34 5.68 -13.68 4.36 -13 3 C-5.25 2.875 -5.25 2.875 -3 4 C-2.566875 3.34 -2.13375 2.68 -1.6875 2 C-1.130625 1.34 -0.57375 0.68 0 0 Z " fill="#E0BE89" transform="translate(73,71)"/>
<path d="M0 0 C0.33 0.66 0.66 1.32 1 2 C1.66 2 2.32 2 3 2 C3 2.99 3 3.98 3 5 C3.66 5 4.32 5 5 5 C5 6.65 5 8.3 5 10 C5.99 8.02 6.98 6.04 8 4 C8.99 4 9.98 4 11 4 C11 3.34 11 2.68 11 2 C11.66 2 12.32 2 13 2 C12.67 4.31 12.34 6.62 12 9 C12.99 6.69 13.98 4.38 15 2 C15.66 2 16.32 2 17 2 C17 2.66 17 3.32 17 4 C17.99 4 18.98 4 20 4 C20 4.99 20 5.98 20 7 C20.66 7 21.32 7 22 7 C22.66 5.02 23.32 3.04 24 1 C24.66 1.33 25.32 1.66 26 2 C25.67 2.66 25.34 3.32 25 4 C25.99 4.33 26.98 4.66 28 5 C28 6.32 28 7.64 28 9 C28.66 8.67 29.32 8.34 30 8 C29.34 9.32 28.68 10.64 28 12 C27.01 12 26.02 12 25 12 C25.33 10.02 25.66 8.04 26 6 C25.34 6 24.68 6 24 6 C23.34 7.98 22.68 9.96 22 12 C14.08 12.495 14.08 12.495 6 13 C6 13.66 6 14.32 6 15 C4.68 14.67 3.36 14.34 2 14 C2.33 13.34 2.66 12.68 3 12 C2.30132812 12.15597656 1.60265625 12.31195313 0.8828125 12.47265625 C-0.48230469 12.76462891 -0.48230469 12.76462891 -1.875 13.0625 C-2.77992187 13.25972656 -3.68484375 13.45695312 -4.6171875 13.66015625 C-7 14 -7 14 -9 13 C-9 11.35 -9 9.7 -9 8 C-8.01 8.33 -7.02 8.66 -6 9 C-6.33 9.66 -6.66 10.32 -7 11 C-6.01 11.33 -5.02 11.66 -4 12 C-4.1957792 9.59855733 -4.1957792 9.59855733 -5 7 C-6.30915279 5.96854629 -7.64082143 4.96457834 -9 4 C-9 3.01 -9 2.02 -9 1 C-5.92677456 0.08941469 -3.19902639 -0.08886184 0 0 Z " fill="#DFBE8C" transform="translate(12,70)"/>
<path d="M0 0 C0.66 0 1.32 0 2 0 C2.81604999 1.9151579 3.62770632 3.83218834 4.4375 5.75 C5.11619141 7.35101563 5.11619141 7.35101563 5.80859375 8.984375 C6.73979553 11.3413841 7.4784072 13.52992835 8 16 C8.66 16 9.32 16 10 16 C10 16.99 10 17.98 10 19 C9.01 19 8.02 19 7 19 C7 19.66 7 20.32 7 21 C7.66 21.33 8.32 21.66 9 22 C6.36 22 3.72 22 1 22 C1.33 22.66 1.66 23.32 2 24 C2.07116382 26.37402501 2.08409085 28.75000677 2.0625 31.125 C2.05347656 32.40632813 2.04445313 33.68765625 2.03515625 35.0078125 C2.02355469 35.99523438 2.01195313 36.98265625 2 38 C1.34 38 0.68 38 0 38 C0 37.34 0 36.68 0 36 C-0.99 36 -1.98 36 -3 36 C-3 36.66 -3 37.32 -3 38 C-5.31 38 -7.62 38 -10 38 C-10 36.02 -10 34.04 -10 32 C-7.36 32 -4.72 32 -2 32 C-2 31.34 -2 30.68 -2 30 C-4.64 30 -7.28 30 -10 30 C-10 28.02 -10 26.04 -10 24 C-7.69 24 -5.38 24 -3 24 C-3 24.66 -3 25.32 -3 26 C-2.34 26 -1.68 26 -1 26 C-1 24.35 -1 22.7 -1 21 C0.65 20.67 2.3 20.34 4 20 C4 17.03 4 14.06 4 11 C2.02 11.33 0.04 11.66 -2 12 C-2.33 13.98 -2.66 15.96 -3 18 C-4.65 18 -6.3 18 -8 18 C-8 17.34 -8 16.68 -8 16 C-7.34 16 -6.68 16 -6 16 C-5.83177734 15.20335937 -5.83177734 15.20335937 -5.66015625 14.390625 C-4.83141323 11.38949642 -3.65240018 8.61591837 -2.4375 5.75 C-1.98246094 4.67234375 -1.52742188 3.5946875 -1.05859375 2.484375 C-0.70925781 1.66453125 -0.35992187 0.8446875 0 0 Z " fill="#E3EFF9" transform="translate(92,1)"/>
<path d="M0 0 C5.61 0 11.22 0 17 0 C17.33 1.65 17.66 3.3 18 5 C17.01 5.66 16.02 6.32 15 7 C14.45897058 8.93169781 14.45897058 8.93169781 14.375 11.0625 C14 15 14 15 13 16 C8.66469082 16.14393457 4.33842269 16.04212061 0 16 C0 10.72 0 5.44 0 0 Z " fill="#EBF2FA" transform="translate(18,34)"/>
<path d="M0 0 C3.3 0 6.6 0 10 0 C10 1.98 10 3.96 10 6 C9.34 6 8.68 6 8 6 C8 6.66 8 7.32 8 8 C9.423125 7.938125 9.423125 7.938125 10.875 7.875 C14 8 14 8 16 10 C14.35 10 12.7 10 11 10 C11.33 10.99 11.66 11.98 12 13 C7.66726186 13.92844389 4.33273814 13.92844389 0 13 C0 14.65 0 16.3 0 18 C2.64 18 5.28 18 8 18 C8 18.66 8 19.32 8 20 C5.36 20 2.72 20 0 20 C0 21.98 0 23.96 0 26 C0.66 26 1.32 26 2 26 C2 26.66 2 27.32 2 28 C0.02 28 -1.96 28 -4 28 C-3.67 22.72 -3.34 17.44 -3 12 C-3.66 12 -4.32 12 -5 12 C-5 10.02 -5 8.04 -5 6 C-4.67 6.66 -4.34 7.32 -4 8 C-2.02 8 -0.04 8 2 8 C2 7.34 2 6.68 2 6 C1.34 6 0.68 6 0 6 C0 4.02 0 2.04 0 0 Z " fill="#E9F3F9" transform="translate(62,33)"/>
<path d="M0 0 C5.28 0 10.56 0 16 0 C16 4.95 16 9.9 16 15 C5.16015625 15.09765625 5.16015625 15.09765625 2 15 C-0.63636902 12.36363098 0.19813972 3.14192986 0 0 Z " fill="#F0F6FA" transform="translate(0,34)"/>
<path d="M0 0 C1 3 1 3 1 6 C1.66 5.34 2.32 4.68 3 4 C3 4.99 3 5.98 3 7 C3.66 7 4.32 7 5 7 C5.33 5.35 5.66 3.7 6 2 C8.97 2 11.94 2 15 2 C15 3.65 15 5.3 15 7 C15.99 5.02 16.98 3.04 18 1 C20.475 1.495 20.475 1.495 23 2 C24.1577506 5.47325181 24.06866652 8.36067448 24 12 C20.04172765 12.05785647 16.0835633 12.09354717 12.125 12.125 C10.99707031 12.14175781 9.86914062 12.15851563 8.70703125 12.17578125 C7.09248047 12.18544922 7.09248047 12.18544922 5.4453125 12.1953125 C3.95281982 12.21102295 3.95281982 12.21102295 2.43017578 12.22705078 C0 12 0 12 -2 10 C-2.01171875 7.87109375 -2.01171875 7.87109375 -1.6875 5.4375 C-1.58824219 4.63183594 -1.48898438 3.82617188 -1.38671875 2.99609375 C-1 1 -1 1 0 0 Z " fill="#FAF7EE" transform="translate(179,73)"/>
<path d="M0 0 C0.66 0 1.32 0 2 0 C1.34 2.97 0.68 5.94 0 9 C0.99 6.36 1.98 3.72 3 1 C3.66 1 4.32 1 5 1 C5 2.65 5 4.3 5 6 C5.66 5.01 6.32 4.02 7 3 C8.32 3 9.64 3 11 3 C11.495 4.98 11.495 4.98 12 7 C12.66 6.01 13.32 5.02 14 4 C16.625 3.8125 16.625 3.8125 19 4 C19.66 5.65 20.32 7.3 21 9 C18.75 11.5625 18.75 11.5625 16 14 C13.6875 13.8125 13.6875 13.8125 12 13 C12.33 12.34 12.66 11.68 13 11 C11.68 11 10.36 11 9 11 C9.33 9.02 9.66 7.04 10 5 C7.7522025 7.05233685 6.9977758 8.00667261 6 11 C0.72 11 -4.56 11 -10 11 C-9.67 9.02 -9.34 7.04 -9 5 C-11.2477975 7.05233685 -12.0022242 8.00667261 -13 11 C-15.97 10.67 -18.94 10.34 -22 10 C-21.01 8.68 -20.02 7.36 -19 6 C-18.67 7.32 -18.34 8.64 -18 10 C-16.03243548 9.96877057 -16.03243548 9.96877057 -14 9 C-12.6954344 6.00384054 -12.6954344 6.00384054 -12 3 C-10.68 3 -9.36 3 -8 3 C-7.67 4.32 -7.34 5.64 -7 7 C-6.34 5.68 -5.68 4.36 -5 3 C-3.68 3 -2.36 3 -1 3 C-0.67 2.01 -0.34 1.02 0 0 Z " fill="#DDB780" transform="translate(153,71)"/>
<path d="M0 0 C11.22 0 22.44 0 34 0 C34 5.28 34 10.56 34 16 C22.78 16 11.56 16 0 16 C0 10.72 0 5.44 0 0 Z M2 3 C2 6.63 2 10.26 2 14 C11.9 14 21.8 14 32 14 C32 10.37 32 6.74 32 3 C22.1 3 12.2 3 2 3 Z " fill="#4B78C2" transform="translate(0,12)"/>
<path d="M0 0 C9.12317328 -0.48016701 9.12317328 -0.48016701 12.625 1.4375 C14.67574437 5.25934179 14.7950864 8.75953918 14 13 C12.12379387 15.50160818 10.76108697 16.61945652 8 18 C5.36 18 2.72 18 0 18 C0 12.06 0 6.12 0 0 Z " fill="#4270BF" transform="translate(127,1)"/>
<path d="M0 0 C1.65 0 3.3 0 5 0 C5.16346226 1.55894559 5.27907115 3.1229461 5.375 4.6875 C5.47941406 5.99267578 5.47941406 5.99267578 5.5859375 7.32421875 C4.86893271 10.59854063 3.39599846 11.8983421 0.81161499 13.94767761 C-2.31099836 15.76152656 -5.5298912 15.61477317 -9.0234375 15.48828125 C-9.76961334 15.48120651 -10.51578918 15.47413177 -11.28457642 15.46684265 C-13.64910592 15.43903177 -16.0111963 15.376328 -18.375 15.3125 C-19.98564268 15.2873995 -21.59632279 15.26458939 -23.20703125 15.24414062 C-27.13894912 15.1892501 -31.06906223 15.10307849 -35 15 C-35 13.35 -35 11.7 -35 10 C-34.07662842 10.01047363 -33.15325684 10.02094727 -32.2019043 10.03173828 C-28.77463282 10.0658319 -25.34754167 10.09090446 -21.92016602 10.10986328 C-20.43706417 10.11991821 -18.95398212 10.13356404 -17.47094727 10.15087891 C-15.33865469 10.17515006 -13.20662431 10.18648799 -11.07421875 10.1953125 C-9.79119873 10.20578613 -8.50817871 10.21625977 -7.1862793 10.22705078 C-3.84357256 10.2526056 -3.84357256 10.2526056 -1 8 C-0.42251197 6.03638136 -0.42251197 6.03638136 -0.3125 3.875 C-0.209375 2.59625 -0.10625 1.3175 0 0 Z " fill="#F4F9FC" transform="translate(35,41)"/>
<path d="M0 0 C0.33 0.66 0.66 1.32 1 2 C2.32 2 3.64 2 5 2 C5.33 3.32 5.66 4.64 6 6 C7.15628906 5.98259766 7.15628906 5.98259766 8.3359375 5.96484375 C9.33882812 5.95582031 10.34171875 5.94679688 11.375 5.9375 C12.37273438 5.92589844 13.37046875 5.91429688 14.3984375 5.90234375 C17 6 17 6 19 7 C19.66 5.35 20.32 3.7 21 2 C21.495 3.98 21.495 3.98 22 6 C22.33 5.67 22.66 5.34 23 5 C23.66 4.67 24.32 4.34 25 4 C25.495 5.485 25.495 5.485 26 7 C26.66 7.33 27.32 7.66 28 8 C28 8.66 28 9.32 28 10 C11.5 10 -5 10 -22 10 C-22 9.34 -22 8.68 -22 8 C-18.99686252 6.49843126 -16.20932478 6.90718796 -12.875 6.9375 C-11.59367187 6.94652344 -10.31234375 6.95554687 -8.9921875 6.96484375 C-8.00476562 6.97644531 -7.01734375 6.98804687 -6 7 C-5.34 5.02 -4.68 3.04 -4 1 C-3.34 1 -2.68 1 -2 1 C-2.33 2.98 -2.66 4.96 -3 7 C-1.68 6.34 -0.36 5.68 1 5 C0.34 5 -0.32 5 -1 5 C-0.67 3.35 -0.34 1.7 0 0 Z " fill="#FAF3E4" transform="translate(40,75)"/>
<path d="M0 0 C3.79549259 0.54581199 5.30979295 2.05409295 7.75 4.9375 C8.67039062 6.00291016 8.67039062 6.00291016 9.609375 7.08984375 C11 9 11 9 11 11 C11.66 11 12.32 11 13 11 C13.226875 10.484375 13.45375 9.96875 13.6875 9.4375 C14.8482633 7.28179673 16.07118849 5.27889028 17.4375 3.25 C17.84871094 2.63640625 18.25992188 2.0228125 18.68359375 1.390625 C19.11800781 0.93171875 19.55242187 0.4728125 20 0 C20.99 0 21.98 0 23 0 C23 0.66 23 1.32 23 2 C22.34 2 21.68 2 21 2 C21 6.62 21 11.24 21 16 C21.66 16 22.32 16 23 16 C23 16.66 23 17.32 23 18 C21.02 18 19.04 18 17 18 C17 17.34 17 16.68 17 16 C17.66 16 18.32 16 19 16 C18.67 13.03 18.34 10.06 18 7 C16.35 9.31 14.7 11.62 13 14 C9.28139821 12.46126823 8.64366459 11.52488612 6 8 C6 11.3 6 14.6 6 18 C4.02 18 2.04 18 0 18 C0 17.34 0 16.68 0 16 C0.66 16 1.32 16 2 16 C2 11.38 2 6.76 2 2 C1.34 2 0.68 2 0 2 C0 1.34 0 0.68 0 0 Z " fill="#3E6FBD" transform="translate(58,1)"/>
<path d="M0 0 C9 0 9 0 12 2 C12.3125 4.5 12.3125 4.5 12 7 C11.34 7.66 10.68 8.32 10 9 C9.83322718 12.58343976 9.83322718 12.58343976 10 16 C10.99 16 11.98 16 13 16 C13 16.66 13 17.32 13 18 C11.68 18 10.36 18 9 18 C8.566875 16.865625 8.13375 15.73125 7.6875 14.5625 C7.130625 13.386875 6.57375 12.21125 6 11 C5.01 10.67 4.02 10.34 3 10 C3 11.98 3 13.96 3 16 C3.99 16 4.98 16 6 16 C6 16.66 6 17.32 6 18 C4.02 18 2.04 18 0 18 C0 12.06 0 6.12 0 0 Z " fill="#386BBD" transform="translate(93,23)"/>
<path d="M0 0 C7.92 0 15.84 0 24 0 C23.34 5.61 22.68 11.22 22 17 C21.67 17 21.34 17 21 17 C21 12.38 21 7.76 21 3 C21.66 3 22.32 3 23 3 C23 2.34 23 1.68 23 1 C19.3038953 2.45604125 17.91170721 4.26603261 15.875 7.625 C14.3671875 10.1015625 14.3671875 10.1015625 13 12 C12.34 12 11.68 12 11 12 C9.62984736 10.42330631 8.32708298 8.78756162 7.0625 7.125 C4.77093538 4.11812455 3.16418962 2.10945975 0 0 Z " fill="#E2ECF8" transform="translate(58,0)"/>
<path d="M0 0 C8 0 8 0 11 2 C11.44698825 6.11229194 10.80190597 8.39618806 9 12 C9.29805007 14.19747131 9.29805007 14.19747131 10 16 C10.99 16 11.98 16 13 16 C13 16.66 13 17.32 13 18 C10.6875 17.875 10.6875 17.875 8 17 C6.3125 14 6.3125 14 5 11 C4.34 10.67 3.68 10.34 3 10 C3 11.98 3 13.96 3 16 C3.99 16 4.98 16 6 16 C6 16.66 6 17.32 6 18 C4.02 18 2.04 18 0 18 C0 12.06 0 6.12 0 0 Z " fill="#3B6BBC" transform="translate(92,43)"/>
<path d="M0 0 C8 0 8 0 11 2 C11.44698825 6.11229194 10.80190597 8.39618806 9 12 C9.29805007 14.19747131 9.29805007 14.19747131 10 16 C10.99 16 11.98 16 13 16 C13 16.66 13 17.32 13 18 C11.35 17.67 9.7 17.34 8 17 C7.34 14.69 6.68 12.38 6 10 C5.01 10 4.02 10 3 10 C3 11.98 3 13.96 3 16 C3.99 16 4.98 16 6 16 C6 16.66 6 17.32 6 18 C4.02 18 2.04 18 0 18 C0 12.06 0 6.12 0 0 Z " fill="#3667BC" transform="translate(173,43)"/>
<path d="M0 0 C4.28094249 0.30082299 6.18748029 1.81716516 8.99414062 4.99804688 C9.42919922 5.51431641 9.86425781 6.03058594 10.3125 6.5625 C10.76689453 7.08263672 11.22128906 7.60277344 11.68945312 8.13867188 C12.80339243 9.41677066 13.90314888 10.70720655 15 12 C15 8.04 15 4.08 15 0 C16.98 0 18.96 0 21 0 C21 0.66 21 1.32 21 2 C20.01 2 19.02 2 18 2 C18 7.28 18 12.56 18 18 C13.82180632 14.54495522 10.32148145 11.3056241 7 7 C6.34 6.67 5.68 6.34 5 6 C5.33 9.96 5.66 13.92 6 18 C4.02 18 2.04 18 0 18 C0 17.34 0 16.68 0 16 C0.66 16 1.32 16 2 16 C2 11.38 2 6.76 2 2 C1.34 2 0.68 2 0 2 C0 1.34 0 0.68 0 0 Z " fill="#4E7AC4" transform="translate(104,1)"/>
<path d="M0 0 C2.31 0 4.62 0 7 0 C7 0.66 7 1.32 7 2 C7.99 2 8.98 2 10 2 C10 1.34 10 0.68 10 0 C10.66 0 11.32 0 12 0 C12 4.62 12 9.24 12 14 C11.34 14 10.68 14 10 14 C10 13.34 10 12.68 10 12 C9.01 12 8.02 12 7 12 C7 12.66 7 13.32 7 14 C4.69 14 2.38 14 0 14 C0 12.02 0 10.04 0 8 C2.64 8 5.28 8 8 8 C8 7.34 8 6.68 8 6 C5.36 6 2.72 6 0 6 C0 4.02 0 2.04 0 0 Z " fill="#EBF3FB" transform="translate(147,3)"/>
<path d="M0 0 C0.66 0 1.32 0 2 0 C1.67 1.98 1.34 3.96 1 6 C1.66 6 2.32 6 3 6 C2.34 7.32 1.68 8.64 1 10 C-0.98 10 -2.96 10 -5 10 C-5.33 9.01 -5.66 8.02 -6 7 C-6.495 7.495 -6.99 7.99 -7.5 8.5 C-11.11630158 10.66978095 -13.82231616 10.20888419 -18 10 C-18 10.99 -18 11.98 -18 13 C-19.32 13 -20.64 13 -22 13 C-22 12.34 -22 11.68 -22 11 C-22.66 11 -23.32 11 -24 11 C-23.67 9.68 -23.34 8.36 -23 7 C-23 7.66 -23 8.32 -23 9 C-22.34 9 -21.68 9 -21 9 C-20.67 8.01 -20.34 7.02 -20 6 C-17 7 -17 7 -15 8 C-14.34 6.35 -13.68 4.7 -13 3 C-11.68 3 -10.36 3 -9 3 C-8.67 3.99 -8.34 4.98 -8 6 C-7.67 4.35 -7.34 2.7 -7 1 C-6.01 1 -5.02 1 -4 1 C-3.34 2.32 -2.68 3.64 -2 5 C-1.34 3.35 -0.68 1.7 0 0 Z " fill="#DFB77D" transform="translate(90,72)"/>
<path d="M0 0 C4.29 0 8.58 0 13 0 C13 1.32 13 2.64 13 4 C10.03 3.67 7.06 3.34 4 3 C4 4.65 4 6.3 4 8 C6.64 8 9.28 8 12 8 C12 8.99 12 9.98 12 11 C9.36 11 6.72 11 4 11 C4 12.65 4 14.3 4 16 C6.31 16 8.62 16 11 16 C11 15.34 11 14.68 11 14 C11.66 14 12.32 14 13 14 C13 15.32 13 16.64 13 18 C8.71 18 4.42 18 0 18 C0 12.06 0 6.12 0 0 Z " fill="#3465BA" transform="translate(188,43)"/>
<path d="M0 0 C4.02716175 0.53327713 5.85821443 2.51567979 8.625 5.375 C9.40101562 6.16648437 10.17703125 6.95796875 10.9765625 7.7734375 C13 10 13 10 15 13 C15.33 9.37 15.66 5.74 16 2 C15.34 2 14.68 2 14 2 C14 1.34 14 0.68 14 0 C15.98 0 17.96 0 20 0 C20 0.66 20 1.32 20 2 C19.34 2 18.68 2 18 2 C18 7.28 18 12.56 18 18 C14.26977613 16.13488807 12.93698709 15.06986999 10.375 12 C8.6266832 9.92339664 6.92037235 7.92037235 5 6 C4.67 9.3 4.34 12.6 4 16 C4.66 16 5.32 16 6 16 C6 16.66 6 17.32 6 18 C4.02 18 2.04 18 0 18 C0 17.34 0 16.68 0 16 C0.66 16 1.32 16 2 16 C2 11.38 2 6.76 2 2 C1.34 2 0.68 2 0 2 C0 1.34 0 0.68 0 0 Z " fill="#3768BB" transform="translate(107,43)"/>
<path d="M0 0 C1.98 0 3.96 0 6 0 C6 0.66 6 1.32 6 2 C5.34 2 4.68 2 4 2 C4 3.98 4 5.96 4 8 C7.3 8 10.6 8 14 8 C14 6.02 14 4.04 14 2 C13.34 2 12.68 2 12 2 C12 1.34 12 0.68 12 0 C13.98 0 15.96 0 18 0 C18 0.66 18 1.32 18 2 C17.34 2 16.68 2 16 2 C16 6.62 16 11.24 16 16 C16.66 16 17.32 16 18 16 C18 16.66 18 17.32 18 18 C16.02 18 14.04 18 12 18 C12 17.34 12 16.68 12 16 C12.66 16 13.32 16 14 16 C14 14.02 14 12.04 14 10 C10.7 10 7.4 10 4 10 C4 11.98 4 13.96 4 16 C4.66 16 5.32 16 6 16 C6 16.66 6 17.32 6 18 C4.02 18 2.04 18 0 18 C0 17.34 0 16.68 0 16 C0.66 16 1.32 16 2 16 C2 11.38 2 6.76 2 2 C1.34 2 0.68 2 0 2 C0 1.34 0 0.68 0 0 Z " fill="#396BBE" transform="translate(58,23)"/>
<path d="M0 0 C1.98 0 3.96 0 6 0 C6 0.66 6 1.32 6 2 C5.34 2 4.68 2 4 2 C4.33 6.29 4.66 10.58 5 15 C6.98 15 8.96 15 11 15 C11 10.05 11 5.1 11 0 C12.98 0 14.96 0 17 0 C17 0.66 17 1.32 17 2 C16.34 2 15.68 2 15 2 C15.04640625 2.89203125 15.0928125 3.7840625 15.140625 4.703125 C15.17671875 5.87359375 15.2128125 7.0440625 15.25 8.25 C15.29640625 9.41015625 15.3428125 10.5703125 15.390625 11.765625 C15 15 15 15 13.17578125 17.39453125 C10.25961 19.54632009 8.54441224 19.52789118 5 19 C3.328125 17.921875 3.328125 17.921875 2 16 C1.70703125 12.64453125 1.70703125 12.64453125 1.8125 8.8125 C1.83957031 7.54019531 1.86664063 6.26789062 1.89453125 4.95703125 C1.92933594 3.98121094 1.96414062 3.00539062 2 2 C1.34 2 0.68 2 0 2 C0 1.34 0 0.68 0 0 Z " fill="#3D6FBF" transform="translate(154,43)"/>
<path d="M0 0 C1.32 0 2.64 0 4 0 C4 1.32 4 2.64 4 4 C4.66 4 5.32 4 6 4 C6.02686553 5.97909398 6.04633375 7.95828971 6.0625 9.9375 C6.07410156 11.03964844 6.08570312 12.14179687 6.09765625 13.27734375 C6 16 6 16 5 17 C2 17.125 2 17.125 -1 17 C-2 16 -2 16 -2.09765625 13.05859375 C-2.08605469 11.86363281 -2.07445313 10.66867188 -2.0625 9.4375 C-2.05347656 8.23996094 -2.04445313 7.04242188 -2.03515625 5.80859375 C-2.02355469 4.88175781 -2.01195313 3.95492187 -2 3 C-1.34 3 -0.68 3 0 3 C0 2.01 0 1.02 0 0 Z " fill="#F3F8FB" transform="translate(79,42)"/>
<path d="M0 0 C2 2 2 2 2.1953125 5.4765625 C2.18201493 6.85950968 2.15816232 8.24238654 2.125 9.625 C2.11597656 10.33140625 2.10695312 11.0378125 2.09765625 11.765625 C2.07407603 13.51056098 2.03820461 15.25532295 2 17 C1.34 17.33 0.68 17.66 0 18 C0 16.68 0 15.36 0 14 C-0.66 14 -1.32 14 -2 14 C-2 14.66 -2 15.32 -2 16 C-4.31 16 -6.62 16 -9 16 C-9 14.35 -9 12.7 -9 11 C-6.36 11 -3.72 11 -1 11 C-1 10.01 -1 9.02 -1 8 C-3.64 8 -6.28 8 -9 8 C-9 6.35 -9 4.7 -9 3 C-6.03 3.33 -3.06 3.66 0 4 C0 2.68 0 1.36 0 0 Z " fill="#ECF4FA" transform="translate(201,43)"/>
<path d="M0 0 C1.98 0 3.96 0 6 0 C6 0.66 6 1.32 6 2 C5.34 2 4.68 2 4 2 C4.33 6.29 4.66 10.58 5 15 C6.98 15 8.96 15 11 15 C12.81115956 13.18884044 12.38199448 10.38721773 12.5625 7.9375 C12.64628906 6.83277344 12.73007813 5.72804688 12.81640625 4.58984375 C12.87699219 3.73519531 12.93757813 2.88054688 13 2 C12.34 2 11.68 2 11 2 C11 1.34 11 0.68 11 0 C12.98 0 14.96 0 17 0 C17 0.66 17 1.32 17 2 C16.34 2 15.68 2 15 2 C15.04640625 2.89203125 15.0928125 3.7840625 15.140625 4.703125 C15.17671875 5.87359375 15.2128125 7.0440625 15.25 8.25 C15.29640625 9.41015625 15.3428125 10.5703125 15.390625 11.765625 C15 15 15 15 13.171875 17.38671875 C11 19 11 19 8 19.5625 C5 19 5 19 2.859375 16.921875 C0.57882146 13.338148 0.40770303 10.90605612 0.25 6.6875 C0.19328125 5.43324219 0.1365625 4.17898437 0.078125 2.88671875 C0.05234375 1.93410156 0.0265625 0.98148438 0 0 Z " fill="#4B76BC" transform="translate(73,43)"/>
<path d="M0 0 C11.88 0 23.76 0 36 0 C35.67 0.66 35.34 1.32 35 2 C34.01 2 33.02 2 32 2 C32 3.32 32 4.64 32 6 C31.01 6 30.02 6 29 6 C29 5.01 29 4.02 29 3 C20.75 3 12.5 3 4 3 C4 3.99 4 4.98 4 6 C3.34 6 2.68 6 2 6 C2 4.68 2 3.36 2 2 C1.34 2 0.68 2 0 2 C0 1.34 0 0.68 0 0 Z " fill="#5582C9" transform="translate(0,56)"/>
<path d="M0 0 C3.0954672 3.36428409 3.35980696 5.67992437 3.25 10.1875 C3.23453125 11.25355469 3.2190625 12.31960937 3.203125 13.41796875 C3 16 3 16 2 17 C-1 17.125 -1 17.125 -4 17 C-5 16 -5 16 -5.09765625 13.05859375 C-5.08605469 11.86363281 -5.07445312 10.66867188 -5.0625 9.4375 C-5.05347656 8.23996094 -5.04445312 7.04242188 -5.03515625 5.80859375 C-5.02355469 4.88175781 -5.01195312 3.95492187 -5 3 C-4.01 3 -3.02 3 -2 3 C-2 2.34 -2 1.68 -2 1 C-1.34 0.67 -0.68 0.34 0 0 Z " fill="#F2F7FB" transform="translate(163,42)"/>
<path d="M0 0 C0.99 0.33 1.98 0.66 3 1 C4.38671875 3.87109375 4.38671875 3.87109375 5.6875 7.4375 C6.34298828 9.19900391 6.34298828 9.19900391 7.01171875 10.99609375 C8 14 8 14 8 16 C8.99 16 9.98 16 11 16 C11 16.66 11 17.32 11 18 C9.02 18 7.04 18 5 18 C5 15.69 5 13.38 5 11 C2.69 11.33 0.38 11.66 -2 12 C-2.33 13.98 -2.66 15.96 -3 18 C-4.65 18 -6.3 18 -8 18 C-8 17.34 -8 16.68 -8 16 C-7.34 16 -6.68 16 -6 16 C-5.81824219 15.43152344 -5.63648438 14.86304688 -5.44921875 14.27734375 C-3.85915366 9.39298997 -2.09540222 4.68970973 0 0 Z " fill="#4473C1" transform="translate(141,23)"/>
<path d="M0 0 C3.08459139 2.57199165 4.1393836 5.42222066 5.5625 9.125 C6.87014912 13.35422604 6.87014912 13.35422604 10 16 C10 16.66 10 17.32 10 18 C8.02 18 6.04 18 4 18 C4 15.69 4 13.38 4 11 C1.69 11 -0.62 11 -3 11 C-3 13.31 -3 15.62 -3 18 C-4.98 18 -6.96 18 -9 18 C-9 17.34 -9 16.68 -9 16 C-8.34 15.67 -7.68 15.34 -7 15 C-6.10156419 13.0706667 -5.27894001 11.10559747 -4.5 9.125 C-3.17952882 5.78356378 -1.99795623 2.99693435 0 0 Z " fill="#4875C1" transform="translate(182,1)"/>
<path d="M0 0 C2 2 2 2 2.23046875 5.1875 C2.20919922 7.0746875 2.20919922 7.0746875 2.1875 9 C2.17783203 10.8871875 2.17783203 10.8871875 2.16796875 12.8125 C2 16 2 16 1 18 C5.29 18 9.58 18 14 18 C14 18.33 14 18.66 14 19 C7.73 19 1.46 19 -5 19 C-3.68 18.67 -2.36 18.34 -1 18 C-1 17.34 -1 16.68 -1 16 C-1.99 16 -2.98 16 -4 16 C-4.66 14.02 -5.32 12.04 -6 10 C-5.34 9.34 -4.68 8.68 -4 8 C-3.59952556 5.67724823 -3.2602896 3.34260643 -3 1 C-2.01 0.67 -1.02 0.34 0 0 Z " fill="#DCE8F5" transform="translate(187,43)"/>
<path d="M0 0 C0.66 0 1.32 0 2 0 C2.81604999 1.9151579 3.62770632 3.83218834 4.4375 5.75 C5.11619141 7.35101563 5.11619141 7.35101563 5.80859375 8.984375 C6.73979553 11.3413841 7.4784072 13.52992835 8 16 C8.66 16 9.32 16 10 16 C10 16.66 10 17.32 10 18 C8.35 18 6.7 18 5 18 C4.67 16.02 4.34 14.04 4 12 C2.02 12 0.04 12 -2 12 C-2.33 13.98 -2.66 15.96 -3 18 C-4.65 18 -6.3 18 -8 18 C-8 17.34 -8 16.68 -8 16 C-7.34 16 -6.68 16 -6 16 C-5.83177734 15.20335937 -5.83177734 15.20335937 -5.66015625 14.390625 C-4.83141323 11.38949642 -3.65240018 8.61591837 -2.4375 5.75 C-1.98246094 4.67234375 -1.52742188 3.5946875 -1.05859375 2.484375 C-0.70925781 1.66453125 -0.35992187 0.8446875 0 0 Z " fill="#3F6FC1" transform="translate(92,1)"/>
<path d="M0 0 C4.29 0 8.58 0 13 0 C13 1.32 13 2.64 13 4 C10.03 3.67 7.06 3.34 4 3 C4 4.65 4 6.3 4 8 C6.64 8 9.28 8 12 8 C12 8.66 12 9.32 12 10 C9.36 10 6.72 10 4 10 C4 11.98 4 13.96 4 16 C4.66 16 5.32 16 6 16 C6 16.66 6 17.32 6 18 C4.02 18 2.04 18 0 18 C0 12.06 0 6.12 0 0 Z " fill="#4C78C2" transform="translate(58,43)"/>
<path d="M0 0 C5 0 5 0 7.3125 1.625 C9.50197249 4.7064798 9.61793165 6.29241009 9 10 C7.3125 12.375 7.3125 12.375 5 14 C3.35 14 1.7 14 0 14 C0 9.38 0 4.76 0 0 Z " fill="#E8F1FA" transform="translate(130,3)"/>
<path d="M0 0 C4.29 0 8.58 0 13 0 C13 1.32 13 2.64 13 4 C12.34 4 11.68 4 11 4 C11 3.34 11 2.68 11 2 C8.69 2 6.38 2 4 2 C4 3.98 4 5.96 4 8 C6.64 8 9.28 8 12 8 C12 8.66 12 9.32 12 10 C9.36 10 6.72 10 4 10 C4 11.98 4 13.96 4 16 C6.31 16 8.62 16 11 16 C11 15.34 11 14.68 11 14 C11.66 14 12.32 14 13 14 C13 15.32 13 16.64 13 18 C8.71 18 4.42 18 0 18 C0 17.34 0 16.68 0 16 C0.66 16 1.32 16 2 16 C2 11.38 2 6.76 2 2 C1.34 2 0.68 2 0 2 C0 1.34 0 0.68 0 0 Z " fill="#3F6EC0" transform="translate(143,1)"/>
<path d="M0 0 C3.96 0 7.92 0 12 0 C12 1.32 12 2.64 12 4 C11.34 4 10.68 4 10 4 C10 3.34 10 2.68 10 2 C7.69 2 5.38 2 3 2 C3 3.98 3 5.96 3 8 C5.64 8 8.28 8 11 8 C11 8.66 11 9.32 11 10 C8.36 10 5.72 10 3 10 C3 11.98 3 13.96 3 16 C5.31 16 7.62 16 10 16 C10 15.34 10 14.68 10 14 C10.66 14 11.32 14 12 14 C12 15.32 12 16.64 12 18 C7.71 18 3.42 18 -1 18 C-1 17.34 -1 16.68 -1 16 C-0.34 16 0.32 16 1 16 C0.67 10.72 0.34 5.44 0 0 Z " fill="#3F6FBE" transform="translate(170,23)"/>
<path d="M0 0 C0.33 0 0.66 0 1 0 C1.33 2.64 1.66 5.28 2 8 C11.68370295 8.69613269 21.28385823 9.14973506 31 9 C31.66 6.69 32.32 4.38 33 2 C33.33 2 33.66 2 34 2 C34.29296875 8.0546875 34.29296875 8.0546875 34 10 C30.38903046 12.40731303 28.72434331 12.24532773 24.43359375 12.23046875 C23.14388672 12.22853516 21.85417969 12.22660156 20.52539062 12.22460938 C19.51955933 12.21530396 19.51955933 12.21530396 18.4934082 12.20581055 C16.44144297 12.18753512 14.38992882 12.18530109 12.33789062 12.18554688 C2.28053224 12.14026612 2.28053224 12.14026612 0 11 C0 7.37 0 3.74 0 0 Z " fill="#4675C1" transform="translate(0,40)"/>
<path d="M0 0 C3.96 0 7.92 0 12 0 C11.67 0.99 11.34 1.98 11 3 C8.69 2.67 6.38 2.34 4 2 C4 3.98 4 5.96 4 8 C6.64 8 9.28 8 12 8 C12 8.66 12 9.32 12 10 C9.36 10 6.72 10 4 10 C4 11.98 4 13.96 4 16 C6.31 16 8.62 16 11 16 C11 15.34 11 14.68 11 14 C11.66 14 12.32 14 13 14 C13 15.32 13 16.64 13 18 C8.71 18 4.42 18 0 18 C0 17.34 0 16.68 0 16 C0.66 16 1.32 16 2 16 C1.85936865 13.70800823 1.71234057 11.41640814 1.5625 9.125 C1.48128906 7.84882813 1.40007812 6.57265625 1.31640625 5.2578125 C1.20793973 2.11699848 1.20793973 2.11699848 0 0 Z " fill="#3E6EBF" transform="translate(78,23)"/>
<path d="M0 0 C4.67802059 0.27517768 6.74638753 2.33193886 9.86328125 5.52734375 C11 7 11 7 11 9 C13.97 9.33 16.94 9.66 20 10 C20 10.33 20 10.66 20 11 C17.41638482 11.05407567 14.83390745 11.093707 12.25 11.125 C11.52039063 11.14175781 10.79078125 11.15851562 10.0390625 11.17578125 C5.86478602 11.21372922 3.83029454 10.91514727 0 9 C0 6.03 0 3.06 0 0 Z " fill="#F5FAFB" transform="translate(110,11)"/>
<path d="M0 0 C3.125 -0.1875 3.125 -0.1875 6 0 C6 2.97 6 5.94 6 9 C2.1361104 10.2879632 -1.53677722 10.18415915 -5.5625 10.1875 C-6.34302734 10.19974609 -7.12355469 10.21199219 -7.92773438 10.22460938 C-9.95320035 10.22985217 -11.97822552 10.12234328 -14 10 C-14.66 9.34 -15.32 8.68 -16 8 C-11.05 8 -6.1 8 -1 8 C-1.33 6.35 -1.66 4.7 -2 3 C-1.34 2.01 -0.68 1.02 0 0 Z " fill="#EFF5FA" transform="translate(90,12)"/>
<path d="M0 0 C4.62 0 9.24 0 14 0 C14 0.99 14 1.98 14 3 C14.66 3 15.32 3 16 3 C16 6.63 16 10.26 16 14 C12.4658416 11.08951661 9.1507451 8.35102347 6.3125 4.75 C4.05591227 1.69734445 4.05591227 1.69734445 0 0 Z " fill="#ECF4FB" transform="translate(104,0)"/>
<path d="M0 0 C4.95 0 9.9 0 15 0 C15 1.32 15 2.64 15 4 C14.34 4 13.68 4 13 4 C13 3.34 13 2.68 13 2 C11.68 2 10.36 2 9 2 C9.33 7.28 9.66 12.56 10 18 C8.35 18 6.7 18 5 18 C5.33 13.05 5.66 8.1 6 3 C4.02 3.33 2.04 3.66 0 4 C0 2.68 0 1.36 0 0 Z " fill="#4D7AC4" transform="translate(137,43)"/>
<path d="M0 0 C0 0.66 0 1.32 0 2 C-1.27875 2.12375 -2.5575 2.2475 -3.875 2.375 C-7.34790936 2.69042399 -7.34790936 2.69042399 -10 5 C-10.20146402 8.693507 -10.17353189 11.47940432 -9 15 C-6.69 15.33 -4.38 15.66 -2 16 C-2 14.68 -2 13.36 -2 12 C-2.66 12 -3.32 12 -4 12 C-4 11.34 -4 10.68 -4 10 C-2.35 10 -0.7 10 1 10 C1 12.31 1 14.62 1 17 C-2.13871188 18.56935594 -4.53855822 18.35201103 -8 18 C-10.9375 16.0625 -10.9375 16.0625 -13 13 C-13.87209775 8.70071108 -13.71988642 5.28327579 -11.5625 1.4375 C-7.7722199 -0.68875469 -4.25016698 -0.32693592 0 0 Z " fill="#4472BE" transform="translate(167,23)"/>
<path d="M0 0 C4.62 0 9.24 0 14 0 C14 1.32 14 2.64 14 4 C13.34 4 12.68 4 12 4 C12 3.34 12 2.68 12 2 C10.68 2 9.36 2 8 2 C8 6.62 8 11.24 8 16 C8.66 16 9.32 16 10 16 C10 16.66 10 17.32 10 18 C7.69 18 5.38 18 3 18 C3 17.34 3 16.68 3 16 C3.66 16 4.32 16 5 16 C5 11.38 5 6.76 5 2 C3.35 2.33 1.7 2.66 0 3 C0 2.01 0 1.02 0 0 Z " fill="#5781C7" transform="translate(117,23)"/>
<path d="M0 0 C1.98 0 3.96 0 6 0 C6 0.66 6 1.32 6 2 C5.34 2 4.68 2 4 2 C4 6.62 4 11.24 4 16 C6.31 16 8.62 16 11 16 C11 15.34 11 14.68 11 14 C11.66 14 12.32 14 13 14 C13 15.32 13 16.64 13 18 C8.71 18 4.42 18 0 18 C0 12.06 0 6.12 0 0 Z " fill="#5B86C9" transform="translate(158,1)"/>
<path d="M0 0 C2.63084251 0.51333512 4.05574027 0.33558658 6.5625 -0.5 C7.2225 0.82 7.8825 2.14 8.5625 3.5 C7.1875 5 7.1875 5 5.5625 6.5 C4.9025 6.5 4.2425 6.5 3.5625 6.5 C3.2325 5.51 2.9025 4.52 2.5625 3.5 C1.9025 4.16 1.2425 4.82 0.5625 5.5 C1.2225 6.16 1.8825 6.82 2.5625 7.5 C-0.4075 7.5 -3.3775 7.5 -6.4375 7.5 C-5.7775 7.17 -5.1175 6.84 -4.4375 6.5 C-4.4375 5.84 -4.4375 5.18 -4.4375 4.5 C-5.0975 4.5 -5.7575 4.5 -6.4375 4.5 C-6.125 2.5625 -6.125 2.5625 -5.4375 0.5 C-2.4375 -0.5 -2.4375 -0.5 0 0 Z " fill="#EAD1A6" transform="translate(131.4375,74.5)"/>
<path d="M0 0 C10.23 0 20.46 0 31 0 C31 0.33 31 0.66 31 1 C26.71 1 22.42 1 18 1 C18 6.28 18 11.56 18 17 C17.34 17 16.68 17 16 17 C16 12.05 16 7.1 16 2 C10.72 2 5.44 2 0 2 C0 1.34 0 0.68 0 0 Z " fill="#3666B9" transform="translate(0,32)"/>
<path d="M0 0 C1.65 0 3.3 0 5 0 C5.89953149 8.57886517 5.89953149 8.57886517 3.875 11.77734375 C1.20227651 14.17861876 -0.82136838 14.98346004 -4.375 15.3125 C-5.24125 15.209375 -6.1075 15.10625 -7 15 C-7 14.67 -7 14.34 -7 14 C-5.35 14 -3.7 14 -2 14 C-2 13.34 -2 12.68 -2 12 C-2.66 11.34 -3.32 10.68 -4 10 C-3.01 9.34 -2.02 8.68 -1 8 C-0.42251197 6.03638136 -0.42251197 6.03638136 -0.3125 3.875 C-0.209375 2.59625 -0.10625 1.3175 0 0 Z " fill="#DFEBF8" transform="translate(35,41)"/>
<path d="M0 0 C1.65 0 3.3 0 5 0 C5 4.62 5 9.24 5 14 C4.01 14 3.02 14 2 14 C2 14.66 2 15.32 2 16 C1.34 16 0.68 16 0 16 C0 10.72 0 5.44 0 0 Z " fill="#E6EFF8" transform="translate(123,3)"/>
<path d="M0 0 C6.93359375 -0.09765625 6.93359375 -0.09765625 9 0 C10 1 10 1 10.1875 3.4375 C10 6 10 6 8 8 C5.375 8.125 5.375 8.125 3 8 C2.67 10.64 2.34 13.28 2 16 C1.67 16 1.34 16 1 16 C0.67 10.72 0.34 5.44 0 0 Z " fill="#5784CC" transform="translate(93,23)"/>
<path d="M0 0 C1.98 0 3.96 0 6 0 C5.67 5.28 5.34 10.56 5 16 C5.66 16 6.32 16 7 16 C7 16.66 7 17.32 7 18 C4.69 18 2.38 18 0 18 C0 17.34 0 16.68 0 16 C0.66 16 1.32 16 2 16 C2 11.38 2 6.76 2 2 C1.34 2 0.68 2 0 2 C0 1.34 0 0.68 0 0 Z " fill="#517EC5" transform="translate(108,23)"/>
<path d="M0 0 C3.33333333 0 6.66666667 0 10 0 C10 1.65 10 3.3 10 5 C10.66 5 11.32 5 12 5 C12 5.66 12 6.32 12 7 C10.35 7.33 8.7 7.66 7 8 C7.66 7.67 8.32 7.34 9 7 C8.67 6.01 8.34 5.02 8 4 C7.3503125 4.99 7.3503125 4.99 6.6875 6 C6.130625 6.66 5.57375 7.32 5 8 C4.01 8 3.02 8 2 8 C2.66 6.02 3.32 4.04 4 2 C0.9890638 4.0072908 0.36983503 4.83884224 -1 8 C-1.99 7.67 -2.98 7.34 -4 7 C-3.34 7 -2.68 7 -2 7 C-1.34 4.69 -0.68 2.38 0 0 Z " fill="#DFBC88" transform="translate(115,74)"/>
<path d="M0 0 C2.97 0 5.94 0 9 0 C9 0.99 9 1.98 9 3 C10.32 3.33 11.64 3.66 13 4 C13 5.65 13 7.3 13 9 C13.99 9.33 14.98 9.66 16 10 C15 11 15 11 12.71484375 11.09765625 C11.34005859 11.08025391 11.34005859 11.08025391 9.9375 11.0625 C9.01839844 11.05347656 8.09929687 11.04445313 7.15234375 11.03515625 C6.44207031 11.02355469 5.73179687 11.01195313 5 11 C5.680625 10.0925 6.36125 9.185 7.0625 8.25 C9.26982809 5.28527385 9.26982809 5.28527385 8.75 2.625 C8.5025 2.08875 8.255 1.5525 8 1 C4.31245243 1.49831724 2.39509338 2.10067643 0 5 C0 3.35 0 1.7 0 0 Z " fill="#FCF9F1" transform="translate(164,74)"/>
<path d="M0 0 C0.66 0 1.32 0 2 0 C1.67 1.98 1.34 3.96 1 6 C1.66 6 2.32 6 3 6 C2.34 7.32 1.68 8.64 1 10 C-0.98 10 -2.96 10 -5 10 C-5.33 9.01 -5.66 8.02 -6 7 C-6.99 7.66 -7.98 8.32 -9 9 C-8.34 6.36 -7.68 3.72 -7 1 C-6.01 1 -5.02 1 -4 1 C-3.34 2.32 -2.68 3.64 -2 5 C-1.34 3.35 -0.68 1.7 0 0 Z " fill="#DDB77F" transform="translate(90,72)"/>
<path d="M0 0 C1 3 1 3 1 6 C1.66 5.34 2.32 4.68 3 4 C3 4.99 3 5.98 3 7 C3.66 7 4.32 7 5 7 C5.33 5.35 5.66 3.7 6 2 C8.97 2 11.94 2 15 2 C15 4.31 15 6.62 15 9 C14.34 9 13.68 9 13 9 C13 7.35 13 5.7 13 4 C11.35 5.65 9.7 7.3 8 9 C8.33 7.35 8.66 5.7 9 4 C8.484375 4.825 7.96875 5.65 7.4375 6.5 C5 9 5 9 1.25 9.3125 C0.1775 9.209375 -0.895 9.10625 -2 9 C-1.125 1.125 -1.125 1.125 0 0 Z " fill="#D9B074" transform="translate(179,73)"/>
<path d="M0 0 C0.66 0.33 1.32 0.66 2 1 C1.67 1.66 1.34 2.32 1 3 C1.99 3.33 2.98 3.66 4 4 C4 5.32 4 6.64 4 8 C4.66 7.67 5.32 7.34 6 7 C5.34 8.32 4.68 9.64 4 11 C3.01 11 2.02 11 1 11 C1.33 9.02 1.66 7.04 2 5 C1.34 5 0.68 5 0 5 C-0.66 6.98 -1.32 8.96 -2 11 C-3.65 11 -5.3 11 -7 11 C-6.34 10.67 -5.68 10.34 -5 10 C-5.33 8.02 -5.66 6.04 -6 4 C-5.34 4 -4.68 4 -4 4 C-4 4.66 -4 5.32 -4 6 C-3.34 6 -2.68 6 -2 6 C-1.34 4.02 -0.68 2.04 0 0 Z " fill="#DBB57D" transform="translate(36,71)"/>
<path d="M0 0 C0.66 0 1.32 0 2 0 C1.67 1.98 1.34 3.96 1 6 C2.32 5.67 3.64 5.34 5 5 C5 5.99 5 6.98 5 8 C4 9 4 9 2.15234375 9.09765625 C0.1015625 9.06510417 -1.94921875 9.03255208 -4 9 C-4 8.67 -4 8.34 -4 8 C-10.93 7.505 -10.93 7.505 -18 7 C-18 6.67 -18 6.34 -18 6 C-12.72 6 -7.44 6 -2 6 C-1.67 4.35 -1.34 2.7 -1 1 C-0.67 0.67 -0.34 0.34 0 0 Z " fill="#F8EDD9" transform="translate(161,76)"/>
<path d="M0 0 C0.99 0 1.98 0 3 0 C3 2.97 3 5.94 3 9 C-0.3 8.34 -3.6 7.68 -7 7 C-7 7.66 -7 8.32 -7 9 C-7.66 9 -8.32 9 -9 9 C-9 8.34 -9 7.68 -9 7 C-10.98 7 -12.96 7 -15 7 C-15.33 7.66 -15.66 8.32 -16 9 C-16 8.01 -16 7.02 -16 6 C-16.99 5.67 -17.98 5.34 -19 5 C-16.6739143 4.61936779 -14.33944736 4.28730055 -12 4 C-11.67 4.33 -11.34 4.66 -11 5 C-8.81360547 5.07258946 -6.62499611 5.08373783 -4.4375 5.0625 C-3.23996094 5.05347656 -2.04242188 5.04445313 -0.80859375 5.03515625 C0.58166016 5.01775391 0.58166016 5.01775391 2 5 C2 3.68 2 2.36 2 1 C1.34 0.67 0.68 0.34 0 0 Z " fill="#CCDEF3" transform="translate(180,36)"/>
<path d="M0 0 C0.33 1.32 0.66 2.64 1 4 C1.33 3.67 1.66 3.34 2 3 C2.66 2.67 3.32 2.34 4 2 C4.33 2.99 4.66 3.98 5 5 C5.66 5.33 6.32 5.66 7 6 C7 6.66 7 7.32 7 8 C1.06 8 -4.88 8 -11 8 C-10.67 7.34 -10.34 6.68 -10 6 C-7.36 6 -4.72 6 -2 6 C-1.855625 5.195625 -1.71125 4.39125 -1.5625 3.5625 C-1 1 -1 1 0 0 Z " fill="#FBF9F0" transform="translate(61,77)"/>
<path d="M0 0 C0.99 0 1.98 0 3 0 C2.8125 2.875 2.8125 2.875 2 6 C-0.5 7.25 -0.5 7.25 -3 8 C-3.33 8.66 -3.66 9.32 -4 10 C-6.0625 10.625 -6.0625 10.625 -8 11 C-8.33 9.35 -8.66 7.7 -9 6 C-8.071875 5.7525 -7.14375 5.505 -6.1875 5.25 C-2.74972473 3.90185284 -2.0396478 2.91378257 0 0 Z " fill="#EFD6AA" transform="translate(73,71)"/>
<path d="M0 0 C1.98 0 3.96 0 6 0 C6 0.66 6 1.32 6 2 C5.34 2 4.68 2 4 2 C4.03480469 2.90363281 4.06960937 3.80726562 4.10546875 4.73828125 C4.13253906 5.91777344 4.15960938 7.09726562 4.1875 8.3125 C4.22230469 9.48425781 4.25710937 10.65601563 4.29296875 11.86328125 C4 15 4 15 2.6875 16.90625 C0.1606671 18.54401207 -2.06920094 18.1953866 -5 18 C-4.38125 17.71125 -3.7625 17.4225 -3.125 17.125 C-0.86674235 16.06279958 -0.86674235 16.06279958 1 14 C1.46396693 11.10776497 1.46396693 11.10776497 1.625 7.875 C1.73714844 6.23144531 1.73714844 6.23144531 1.8515625 4.5546875 C1.90054688 3.71164063 1.94953125 2.86859375 2 2 C1.34 2 0.68 2 0 2 C0 1.34 0 0.68 0 0 Z " fill="#3D6BBB" transform="translate(84,43)"/>
<path d="M0 0 C0.99 0 1.98 0 3 0 C3 0.66 3 1.32 3 2 C2.34 2 1.68 2 1 2 C1 6.62 1 11.24 1 16 C1.66 16 2.32 16 3 16 C3 16.66 3 17.32 3 18 C1.02 18 -0.96 18 -3 18 C-3 17.34 -3 16.68 -3 16 C-2.34 16 -1.68 16 -1 16 C-1.09539062 15.01257812 -1.19078125 14.02515625 -1.2890625 13.0078125 C-1.39992188 11.72648438 -1.51078125 10.44515625 -1.625 9.125 C-1.74101563 7.84882813 -1.85703125 6.57265625 -1.9765625 5.2578125 C-1.98816406 3.64519531 -1.98816406 3.64519531 -2 2 C-1.34 1.34 -0.68 0.68 0 0 Z " fill="#3B6CC0" transform="translate(78,1)"/>
<path d="M0 0 C2.7972908 2.06756277 3.02692273 3.14440371 3.6875 6.6875 C3.790625 7.780625 3.89375 8.87375 4 10 C1.69 10 -0.62 10 -3 10 C-2.25 3.375 -2.25 3.375 0 0 Z " fill="#396BC0" transform="translate(182,1)"/>
<path d="M0 0 C1.65 0.33 3.3 0.66 5 1 C5.625 3.375 5.625 3.375 6 6 C5.34 6.66 4.68 7.32 4 8 C0.375 7.625 0.375 7.625 -3 7 C-2.01 4.69 -1.02 2.38 0 0 Z " fill="#DFBE8C" transform="translate(197,74)"/>
<path d="M0 0 C1.98 0 3.96 0 6 0 C6 0.66 6 1.32 6 2 C5.34 2 4.68 2 4 2 C4 6.62 4 11.24 4 16 C4.66 16 5.32 16 6 16 C6 16.66 6 17.32 6 18 C4.35 18 2.7 18 1 18 C1.33 12.72 1.66 7.44 2 2 C1.34 2 0.68 2 0 2 C0 1.34 0 0.68 0 0 Z " fill="#396ABB" transform="translate(129,43)"/>
<path d="M0 0 C0.66 0 1.32 0 2 0 C2 2.64 2 5.28 2 8 C3.32 8 4.64 8 6 8 C6 8.66 6 9.32 6 10 C4.68 9.67 3.36 9.34 2 9 C2 10.98 2 12.96 2 15 C2.99 15 3.98 15 5 15 C5 15.66 5 16.32 5 17 C3.02 17 1.04 17 -1 17 C-0.67 11.39 -0.34 5.78 0 0 Z " fill="#2A60BA" transform="translate(93,44)"/>
<path d="M0 0 C1.32 0.33 2.64 0.66 4 1 C5.09651823 4.41139003 4.94215473 7.20655581 4.5625 10.75 C4.46066406 11.73484375 4.35882813 12.7196875 4.25390625 13.734375 C4.12822266 14.85585938 4.12822266 14.85585938 4 16 C4.66 16 5.32 16 6 16 C6 16.66 6 17.32 6 18 C4.02 18 2.04 18 0 18 C0 17.34 0 16.68 0 16 C0.66 16 1.32 16 2 16 C2 11.38 2 6.76 2 2 C1.34 2 0.68 2 0 2 C0 1.34 0 0.68 0 0 Z " fill="#295FBC" transform="translate(58,1)"/>
<path d="M0 0 C2.31 0 4.62 0 7 0 C7 0.66 7 1.32 7 2 C7.66 2.33 8.32 2.66 9 3 C8.67 3.99 8.34 4.98 8 6 C5.36 6 2.72 6 0 6 C0 4.02 0 2.04 0 0 Z " fill="#DDEAF8" transform="translate(173,25)"/>
<path d="M0 0 C2.64 0 5.28 0 8 0 C8.33 0.66 8.66 1.32 9 2 C7.02 2 5.04 2 3 2 C3 6.95 3 11.9 3 17 C2.34 17 1.68 17 1 17 C0.67 11.39 0.34 5.78 0 0 Z " fill="#3161B6" transform="translate(127,1)"/>
<path d="M0 0 C2.64 0 5.28 0 8 0 C7.67 0.66 7.34 1.32 7 2 C4.03 1.505 4.03 1.505 1 1 C1 2.65 1 4.3 1 6 C3.64 6 6.28 6 9 6 C9 6.99 9 7.98 9 9 C6.36 9 3.72 9 1 9 C1 10.65 1 12.3 1 14 C0.67 14 0.34 14 0 14 C0 9.38 0 4.76 0 0 Z " fill="#7498D2" transform="translate(191,45)"/>
<path d="M0 0 C0.66 0 1.32 0 2 0 C2.33 0.66 2.66 1.32 3 2 C3.33 1.34 3.66 0.68 4 0 C4.66 0 5.32 0 6 0 C6 0.66 6 1.32 6 2 C8.97 2 11.94 2 15 2 C15 2.33 15 2.66 15 3 C12.03 3 9.06 3 6 3 C5.67 4.65 5.34 6.3 5 8 C3.68 8 2.36 8 1 8 C0.01 8.495 0.01 8.495 -1 9 C-0.67 6.03 -0.34 3.06 0 0 Z " fill="#ECD7B1" transform="translate(179,72)"/>
<path d="M0 0 C0.33 0.66 0.66 1.32 1 2 C2.91425781 1.96519531 2.91425781 1.96519531 4.8671875 1.9296875 C6.5364525 1.91093171 8.2057238 1.89273131 9.875 1.875 C10.71675781 1.85824219 11.55851562 1.84148438 12.42578125 1.82421875 C13.23144531 1.81777344 14.03710938 1.81132813 14.8671875 1.8046875 C15.98262939 1.78897705 15.98262939 1.78897705 17.12060547 1.77294922 C19 2 19 2 21 4 C19.35 4 17.7 4 16 4 C16.33 4.99 16.66 5.98 17 7 C16.01 7 15.02 7 14 7 C14 6.01 14 5.02 14 4 C9.71 4 5.42 4 1 4 C0.67 4.66 0.34 5.32 0 6 C0 4.02 0 2.04 0 0 Z " fill="#D3E4F8" transform="translate(57,39)"/>
<path d="M0 0 C0.33 1.32 0.66 2.64 1 4 C6.28 4.33 11.56 4.66 17 5 C17 5.33 17 5.66 17 6 C13.37 6.33 9.74 6.66 6 7 C6 7.33 6 7.66 6 8 C1.94393835 7.53199289 -1.46588679 7.12046792 -5 5 C-3.35 3.35 -1.7 1.7 0 0 Z " fill="#F6E7CF" transform="translate(123,77)"/>
<path d="M0 0 C0.33 0 0.66 0 1 0 C1.33 4.62 1.66 9.24 2 14 C4.64 14 7.28 14 10 14 C10 13.34 10 12.68 10 12 C10.66 12 11.32 12 12 12 C12 13.32 12 14.64 12 16 C7.71 16 3.42 16 -1 16 C-0.67 10.72 -0.34 5.44 0 0 Z " fill="#4C79C3" transform="translate(189,45)"/>
<path d="M0 0 C0.33 0 0.66 0 1 0 C1.28571429 7.42857143 1.28571429 7.42857143 -1 11 C-1.99 11 -2.98 11 -4 11 C-4 15.29 -4 19.58 -4 24 C-4.33 24 -4.66 24 -5 24 C-5 19.38 -5 14.76 -5 10 C-4.34 10 -3.68 10 -3 10 C-3 9.34 -3 8.68 -3 8 C-4.98 8 -6.96 8 -9 8 C-5.86501708 6.14223235 -3.62528568 5.79859524 0 6 C0 4.02 0 2.04 0 0 Z " fill="#B6CFEB" transform="translate(138,35)"/>
<path d="M0 0 C1.98 0 3.96 0 6 0 C6 0.66 6 1.32 6 2 C5.34 2 4.68 2 4 2 C4 6.95 4 11.9 4 17 C3.34 17 2.68 17 2 17 C2 12.05 2 7.1 2 2 C1.34 2 0.68 2 0 2 C0 1.34 0 0.68 0 0 Z " fill="#3767B8" transform="translate(158,1)"/>
<path d="M0 0 C1.98 0 3.96 0 6 0 C6 0.66 6 1.32 6 2 C5.34 2 4.68 2 4 2 C4 6.29 4 10.58 4 15 C3.01 15.495 3.01 15.495 2 16 C2 11.38 2 6.76 2 2 C1.34 2 0.68 2 0 2 C0 1.34 0 0.68 0 0 Z " fill="#3A6ABA" transform="translate(165,43)"/>
<path d="M0 0 C2.125 0.375 2.125 0.375 4 1 C4.33 2.98 4.66 4.96 5 7 C1.25 8.125 1.25 8.125 -1 7 C-1.75 4.5625 -1.75 4.5625 -2 2 C-1.34 1.34 -0.68 0.68 0 0 Z " fill="#E7CC9F" transform="translate(108,74)"/>
<path d="M0 0 C4.29 0 8.58 0 13 0 C13 1.32 13 2.64 13 4 C12.34 4 11.68 4 11 4 C11 3.34 11 2.68 11 2 C8.36 2 5.72 2 3 2 C3 3.98 3 5.96 3 8 C2.67 8 2.34 8 2 8 C2 6.02 2 4.04 2 2 C1.34 2 0.68 2 0 2 C0 1.34 0 0.68 0 0 Z " fill="#3465B9" transform="translate(143,1)"/>
<path d="M0 0 C7.59 0 15.18 0 23 0 C23 0.33 23 0.66 23 1 C18.38 1 13.76 1 9 1 C9.66 2.32 10.32 3.64 11 5 C10.01 5 9.02 5 8 5 C8 4.34 8 3.68 8 3 C5.3260876 2.10869587 2.76276177 1.52268466 0 1 C0 0.67 0 0.34 0 0 Z " fill="#97B1DC" transform="translate(108,22)"/>
<path d="M0 0 C1.65 0 3.3 0 5 0 C5.38218767 1.65614657 5.71395102 3.32457024 6 5 C5 6 5 6 2.4375 6.0625 C1.2309375 6.0315625 1.2309375 6.0315625 0 6 C0 4.02 0 2.04 0 0 Z " fill="#CFE0F3" transform="translate(176,45)"/>
<path d="M0 0 C1.65 0 3.3 0 5 0 C5.38218767 1.65614657 5.71395102 3.32457024 6 5 C5 6 5 6 2.4375 6.0625 C1.2309375 6.0315625 1.2309375 6.0315625 0 6 C0 4.02 0 2.04 0 0 Z " fill="#D2E2F5" transform="translate(95,45)"/>
<path d="M0 0 C0 0.33 0 0.66 0 1 C-5.28 1 -10.56 1 -16 1 C-15 -1 -15 -1 -11.9375 -2.3125 C-6.84312205 -3.20199456 -4.64021673 -2.11659009 0 0 Z " fill="#FCFDFA" transform="translate(124,84)"/>
<path d="M0 0 C0.99 0 1.98 0 3 0 C5.125 6.75 5.125 6.75 4 9 C1.69 9 -0.62 9 -3 9 C-3 8.67 -3 8.34 -3 8 C-1.02 8 0.96 8 3 8 C3 7.34 3 6.68 3 6 C2.01 6 1.02 6 0 6 C0 4.02 0 2.04 0 0 Z " fill="#BFD4ED" transform="translate(176,53)"/>
<path d="M0 0 C0.33 0.66 0.66 1.32 1 2 C1.99 2.33 2.98 2.66 4 3 C3.34 3 2.68 3 2 3 C2.33 4.98 2.66 6.96 3 9 C1.68 9.33 0.36 9.66 -1 10 C-2.46726798 6.18510326 -1.43336419 3.70988378 0 0 Z " fill="#EED6AE" transform="translate(28,72)"/>
<path d="M0 0 C0.33 0 0.66 0 1 0 C1.33 4.29 1.66 8.58 2 13 C3.65 13.33 5.3 13.66 7 14 C7.33 14.99 7.66 15.98 8 17 C2.5840708 17.36106195 2.5840708 17.36106195 0.28125 15.9375 C-1.72366284 12.90568059 -1.04511882 10.35617744 -0.6875 6.8125 C-0.56761719 5.54019531 -0.44773437 4.26789062 -0.32421875 2.95703125 C-0.21722656 1.98121094 -0.11023438 1.00539062 0 0 Z " fill="#618ACA" transform="translate(76,45)"/>
<path d="M0 0 C8.22689076 6.72478992 8.22689076 6.72478992 11 11 C10.67 11.99 10.34 12.98 10 14 C9.52949219 13.45730469 9.05898437 12.91460937 8.57421875 12.35546875 C7.95160156 11.64003906 7.32898438 10.92460938 6.6875 10.1875 C6.07261719 9.47980469 5.45773438 8.77210937 4.82421875 8.04296875 C3.07797698 6.0163477 3.07797698 6.0163477 1.26953125 4.42578125 C0 3 0 3 0 0 Z " fill="#4773BF" transform="translate(111,45)"/>
<path d="M0 0 C0.99 0.33 1.98 0.66 3 1 C2.67 2.98 2.34 4.96 2 7 C0.68 7 -0.64 7 -2 7 C-2 6.34 -2 5.68 -2 5 C-2.66 5 -3.32 5 -4 5 C-3.67 3.68 -3.34 2.36 -3 1 C-3 1.66 -3 2.32 -3 3 C-2.34 3 -1.68 3 -1 3 C-0.67 2.01 -0.34 1.02 0 0 Z " fill="#D9AC6C" transform="translate(70,78)"/>
<path d="M0 0 C2.97 0 5.94 0 9 0 C9 0.99 9 1.98 9 3 C10.32 3.33 11.64 3.66 13 4 C12.67 5.32 12.34 6.64 12 8 C12 7.34 12 6.68 12 6 C10.68 5.67 9.36 5.34 8 5 C8 3.68 8 2.36 8 1 C4.31245243 1.49831724 2.39509338 2.10067643 0 5 C0 3.35 0 1.7 0 0 Z " fill="#F3E3C7" transform="translate(164,74)"/>
<path d="M0 0 C0.66 0 1.32 0 2 0 C2.05383848 2.45862401 2.09359038 4.9160755 2.125 7.375 C2.14175781 8.07367188 2.15851563 8.77234375 2.17578125 9.4921875 C2.19344267 11.32897486 2.10303261 13.16601963 2 15 C0 17 0 17 -3.125 17.125 C-4.548125 17.063125 -4.548125 17.063125 -6 17 C-5.505 15.515 -5.505 15.515 -5 14 C-3.35 13.67 -1.7 13.34 0 13 C0 8.71 0 4.42 0 0 Z " fill="#7FA2D8" transform="translate(165,45)"/>
<path d="M0 0 C0.33 0.66 0.66 1.32 1 2 C1.66 2 2.32 2 3 2 C3 6.62 3 11.24 3 16 C2.67 16 2.34 16 2 16 C1.67 12.37 1.34 8.74 1 5 C0.67 6.98 0.34 8.96 0 11 C-0.33 11 -0.66 11 -1 11 C-2.25 3.375 -2.25 3.375 0 0 Z " fill="#B9CEEF" transform="translate(142,1)"/>
<path d="M0 0 C1.32 1.32 2.64 2.64 4 4 C1 6 1 6 -1 6 C-1 6.66 -1 7.32 -1 8 C-2.32 7.67 -3.64 7.34 -5 7 C-3.88820837 3.66462511 -2.52588702 2.36292656 0 0 Z " fill="#DBAC69" transform="translate(19,77)"/>
<path d="M0 0 C0.99 0.33 1.98 0.66 3 1 C3 2.65 3 4.3 3 6 C1.68 6.33 0.36 6.66 -1 7 C-1.66 5.68 -2.32 4.36 -3 3 C-2.01 2.01 -1.02 1.02 0 0 Z " fill="#E8D0A9" transform="translate(48,74)"/>
<path d="M0 0 C1.98 0 3.96 0 6 0 C6 0.66 6 1.32 6 2 C5.01 2 4.02 2 3 2 C3 7.28 3 12.56 3 18 C2.34 17.67 1.68 17.34 1 17 C1.33 12.05 1.66 7.1 2 2 C1.34 2 0.68 2 0 2 C0 1.34 0 0.68 0 0 Z " fill="#2E61B9" transform="translate(119,1)"/>
<path d="M0 0 C2.64 0 5.28 0 8 0 C7.67 1.32 7.34 2.64 7 4 C7 3.34 7 2.68 7 2 C4.2160817 3.39195915 4.02101003 5.15575779 3 8 C2.34 7.67 1.68 7.34 1 7 C1.020625 6.21625 1.04125 5.4325 1.0625 4.625 C1.18684063 2.01885039 1.18684063 2.01885039 0 0 Z " fill="#E0BE8A" transform="translate(60,74)"/>
<path d="M0 0 C1.875 1.3125 1.875 1.3125 2.75 3.1875 C2.90287435 5.78636397 2.20954536 7.1144253 0.875 9.3125 C0.215 9.3125 -0.445 9.3125 -1.125 9.3125 C-0.795 7.6625 -0.465 6.0125 -0.125 4.3125 C-1.775 3.9825 -3.425 3.6525 -5.125 3.3125 C-5.125 2.3225 -5.125 1.3325 -5.125 0.3125 C-2.125 -0.6875 -2.125 -0.6875 0 0 Z " fill="#F0DAB3" transform="translate(13.125,70.6875)"/>
<path d="M0 0 C2.31 0.33 4.62 0.66 7 1 C6.01 1.495 6.01 1.495 5 2 C5 2.66 5 3.32 5 4 C6.98 4 8.96 4 11 4 C8.35261084 5.4606285 7.10551666 6 4 6 C3.67 6.66 3.34 7.32 3 8 C3 7.01 3 6.02 3 5 C2.01 4.67 1.02 4.34 0 4 C0.99 4 1.98 4 3 4 C3 3.34 3 2.68 3 2 C2.01 2 1.02 2 0 2 C0 1.34 0 0.68 0 0 Z " fill="#CBDEF2" transform="translate(103,37)"/>
<path d="M0 0 C1.875 0.125 1.875 0.125 4 1 C5.25 4.0625 5.25 4.0625 6 7 C5.01 7.33 4.02 7.66 3 8 C3 7.34 3 6.68 3 6 C2.01 6 1.02 6 0 6 C0 4.02 0 2.04 0 0 Z " fill="#BFD7F0" transform="translate(96,33)"/>
<path d="M0 0 C2.64 0 5.28 0 8 0 C7.360625 0.309375 6.72125 0.61875 6.0625 0.9375 C4.06389179 1.8345163 4.06389179 1.8345163 3 3 C4.32 3.99 5.64 4.98 7 6 C4.69 6 2.38 6 0 6 C0 4.02 0 2.04 0 0 Z " fill="#DAEAF8" transform="translate(173,33)"/>
<path d="M0 0 C0.33 0 0.66 0 1 0 C1 4.95 1 9.9 1 15 C1.99 15 2.98 15 4 15 C4 15.66 4 16.32 4 17 C1.69 17 -0.62 17 -3 17 C-3 16.34 -3 15.68 -3 15 C-2.01 15 -1.02 15 0 15 C0 10.05 0 5.1 0 0 Z " fill="#3868BA" transform="translate(123,24)"/>
<path d="M0 0 C0.33 0 0.66 0 1 0 C1 1.98 1 3.96 1 6 C2.65 6 4.3 6 6 6 C5.01 6.33 4.02 6.66 3 7 C3 7.66 3 8.32 3 9 C3.66 9.33 4.32 9.66 5 10 C2.36 10 -0.28 10 -3 10 C-3 9.34 -3 8.68 -3 8 C-2.01 8 -1.02 8 0 8 C0 5.36 0 2.72 0 0 Z " fill="#C1D3EC" transform="translate(96,13)"/>
<path d="M0 0 C1.32 0.66 2.64 1.32 4 2 C4 2.66 4 3.32 4 4 C3.01 4 2.02 4 1 4 C1.33 6.97 1.66 9.94 2 13 C-0.31 13 -2.62 13 -5 13 C-5 12.67 -5 12.34 -5 12 C-3.02 12 -1.04 12 1 12 C0.67 11.34 0.34 10.68 0 10 C-0.06996014 8.29297265 -0.08440154 6.58331997 -0.0625 4.875 C-0.05347656 3.96492187 -0.04445313 3.05484375 -0.03515625 2.1171875 C-0.02355469 1.41851562 -0.01195313 0.71984375 0 0 Z " fill="#CBDFF1" transform="translate(109,7)"/>
<path d="M0 0 C2.64752004 2.57784846 4.94432065 4.91648098 7 8 C3.125 7.125 3.125 7.125 2 6 C1.67 8.64 1.34 11.28 1 14 C0.67 14 0.34 14 0 14 C0 9.38 0 4.76 0 0 Z " fill="#5E8ACF" transform="translate(62,3)"/>
<path d="M0 0 C0.99 0.33 1.98 0.66 3 1 C2.01 2.98 1.02 4.96 0 7 C-2.97 6.67 -5.94 6.34 -9 6 C-8.01 4.68 -7.02 3.36 -6 2 C-5.67 3.32 -5.34 4.64 -5 6 C-3.68 5.67 -2.36 5.34 -1 5 C-0.67 3.35 -0.34 1.7 0 0 Z " fill="#D8AF72" transform="translate(140,75)"/>
<path d="M0 0 C0.66 0 1.32 0 2 0 C0.92598892 2.91517292 0.22189824 4.77810176 -2 7 C-5.0390625 7.1953125 -5.0390625 7.1953125 -8.625 7.125 C-9.81351562 7.10695313 -11.00203125 7.08890625 -12.2265625 7.0703125 C-13.14179687 7.04710938 -14.05703125 7.02390625 -15 7 C-15 6.67 -15 6.34 -15 6 C-14.16855469 5.98582031 -13.33710937 5.97164063 -12.48046875 5.95703125 C-11.39378906 5.90933594 -10.30710937 5.86164063 -9.1875 5.8125 C-8.10855469 5.77769531 -7.02960938 5.74289063 -5.91796875 5.70703125 C-2.78223377 5.29007334 -2.78223377 5.29007334 -1.23828125 2.44921875 C-0.82964844 1.64097656 -0.42101562 0.83273438 0 0 Z " fill="#F6E7CA" transform="translate(117,76)"/>
<path d="M0 0 C0.66 0 1.32 0 2 0 C1.67 1.98 1.34 3.96 1 6 C1.66 6 2.32 6 3 6 C2.34 7.32 1.68 8.64 1 10 C0.01 9.01 -0.98 8.02 -2 7 C-1.34 4.69 -0.68 2.38 0 0 Z " fill="#E2C394" transform="translate(90,72)"/>
<path d="M0 0 C0.33 0 0.66 0 1 0 C1.33 2.64 1.66 5.28 2 8 C8.93 8.495 8.93 8.495 16 9 C16 9.33 16 9.66 16 10 C8.08 10.495 8.08 10.495 0 11 C0 7.37 0 3.74 0 0 Z " fill="#5982C8" transform="translate(0,40)"/>
<path d="M0 0 C0.33 0 0.66 0 1 0 C1 1.65 1 3.3 1 5 C1.66 5.33 2.32 5.66 3 6 C2.34 8.31 1.68 10.62 1 13 C1.99 13 2.98 13 4 13 C4 13.66 4 14.32 4 15 C2.02 15 0.04 15 -2 15 C-2 14.34 -2 13.68 -2 13 C-1.34 13 -0.68 13 0 13 C0 8.71 0 4.42 0 0 Z " fill="#2F64BA" transform="translate(95,26)"/>
<path d="M0 0 C0.66 0 1.32 0 2 0 C2.33 0.99 2.66 1.98 3 3 C3.66 2.01 4.32 1.02 5 0 C5.66 0.33 6.32 0.66 7 1 C6.01 2.98 5.02 4.96 4 7 C2.68 6.67 1.36 6.34 0 6 C0 4.02 0 2.04 0 0 Z " fill="#D9AA69" transform="translate(55,75)"/>
<path d="M0 0 C0.66 1.65 1.32 3.3 2 5 C1.01 5.66 0.02 6.32 -1 7 C-1 6.34 -1 5.68 -1 5 C-2.32 5 -3.64 5 -5 5 C-4.625 3.0625 -4.625 3.0625 -4 1 C-2 0 -2 0 0 0 Z " fill="#E8CCA0" transform="translate(172,75)"/>
<path d="M0 0 C0.66 0 1.32 0 2 0 C1.67 1.65 1.34 3.3 1 5 C0.01 4.67 -0.98 4.34 -2 4 C-2.33 5.98 -2.66 7.96 -3 10 C-3.66 10 -4.32 10 -5 10 C-4.7215625 8.824375 -4.7215625 8.824375 -4.4375 7.625 C-3.74037734 5.02910225 -3.74037734 5.02910225 -5 3 C-3.68 3 -2.36 3 -1 3 C-0.67 2.01 -0.34 1.02 0 0 Z " fill="#ECD5B0" transform="translate(153,71)"/>
<path d="M0 0 C-0.33 0.99 -0.66 1.98 -1 3 C-4.3 3 -7.6 3 -11 3 C-10 1 -10 1 -8.3125 0.375 C-5.51555886 -0.07855802 -2.82858003 -0.06428591 0 0 Z " fill="#F9F3E4" transform="translate(15,82)"/>
<path d="M0 0 C1.65 0 3.3 0 5 0 C5 2.31 5 4.62 5 7 C4.01 7 3.02 7 2 7 C2 5.35 2 3.7 2 2 C1.34 2 0.68 2 0 2 C0 1.34 0 0.68 0 0 Z " fill="#4F7BC0" transform="translate(163,33)"/>
<path d="M0 0 C1.32 0 2.64 0 4 0 C3.67 1.98 3.34 3.96 3 6 C4.98 6 6.96 6 9 6 C9 6.33 9 6.66 9 7 C6.03 7 3.06 7 0 7 C0.66 6.67 1.32 6.34 2 6 C2 5.34 2 4.68 2 4 C1.34 4 0.68 4 0 4 C0 2.68 0 1.36 0 0 Z " fill="#E4C89A" transform="translate(125,75)"/>
<path d="M0 0 C0.66 0 1.32 0 2 0 C2 1.65 2 3.3 2 5 C3.32 5 4.64 5 6 5 C6.33 5.66 6.66 6.32 7 7 C4.69 7 2.38 7 0 7 C-1.04449911 3.86650268 -0.93423645 3.01031744 0 0 Z " fill="#D8AB6C" transform="translate(151,75)"/>
<path d="M0 0 C2.625 0.375 2.625 0.375 5 1 C3.68 1.33 2.36 1.66 1 2 C1 4.64 1 7.28 1 10 C0.01 9.67 -0.98 9.34 -2 9 C-2.125 5.625 -2.125 5.625 -2 2 C-1.34 1.34 -0.68 0.68 0 0 Z " fill="#6992D1" transform="translate(34,39)"/>
<path d="M0 0 C2.475 0.495 2.475 0.495 5 1 C5 2.32 5 3.64 5 5 C3.35 5 1.7 5 0 5 C0 3.35 0 1.7 0 0 Z " fill="#EAF5FC" transform="translate(97,25)"/>
<path d="M0 0 C0.99 0.33 1.98 0.66 3 1 C2.34 1 1.68 1 1 1 C1 1.66 1 2.32 1 3 C2.65 3 4.3 3 6 3 C6 3.33 6 3.66 6 4 C1.02936879 4.91297308 -3.02936879 4.91297308 -8 4 C-8 3.67 -8 3.34 -8 3 C-6.02 3 -4.04 3 -2 3 C-2 2.34 -2 1.68 -2 1 C-1.34 0.67 -0.68 0.34 0 0 Z " fill="#BED1EA" transform="translate(83,16)"/>
<path d="M0 0 C1.5625 1.75 1.5625 1.75 3 4 C2.6875 6.25 2.6875 6.25 2 8 C0.68 8 -0.64 8 -2 8 C-1.33333333 5.33333333 -0.66666667 2.66666667 0 0 Z " fill="#789FD8" transform="translate(183,2)"/>
<path d="M0 0 C0.66 0 1.32 0 2 0 C2 0.66 2 1.32 2 2 C1.34 2 0.68 2 0 2 C0 2.99 0 3.98 0 5 C0.66 5 1.32 5 2 5 C2.33 6.32 2.66 7.64 3 9 C1.68 9 0.36 9 -1 9 C-1.80967438 6.08517222 -2.21845993 4.53886783 -1.0625 1.6875 C-0.711875 1.130625 -0.36125 0.57375 0 0 Z " fill="#82A6DA" transform="translate(92,1)"/>
<path d="M0 0 C0.99 0.33 1.98 0.66 3 1 C4.1875 4.0625 4.1875 4.0625 5 7 C4.01 7.495 4.01 7.495 3 8 C3 7.34 3 6.68 3 6 C2.01 6 1.02 6 0 6 C0 4.02 0 2.04 0 0 Z " fill="#D4E6F8" transform="translate(95,53)"/>
<path d="M0 0 C1.98 0 3.96 0 6 0 C6 0.66 6 1.32 6 2 C5.01 2 4.02 2 3 2 C3 5.63 3 9.26 3 13 C2.67 13 2.34 13 2 13 C2 9.37 2 5.74 2 2 C1.34 2 0.68 2 0 2 C0 1.34 0 0.68 0 0 Z " fill="#3365B8" transform="translate(154,43)"/>
<path d="M0 0 C0.66 0.33 1.32 0.66 2 1 C0.25 5.875 0.25 5.875 -2 7 C-4.6723621 7.13415472 -7.32250488 7.04318541 -10 7 C-10 6.67 -10 6.34 -10 6 C-8.906875 5.938125 -7.81375 5.87625 -6.6875 5.8125 C-2.85667284 5.3867767 -2.85667284 5.3867767 -1.0625 2.4375 C-0.711875 1.633125 -0.36125 0.82875 0 0 Z " fill="#F6E6C9" transform="translate(187,76)"/>
<path d="M0 0 C0.99 0.33 1.98 0.66 3 1 C3.6875 3.0625 3.6875 3.0625 4 5 C4.99 5 5.98 5 7 5 C7 5.66 7 6.32 7 7 C5.35 6.67 3.7 6.34 2 6 C1.34 4.02 0.68 2.04 0 0 Z " fill="#4874BF" transform="translate(98,54)"/>
<path d="M0 0 C0.33 0.66 0.66 1.32 1 2 C1.66 2 2.32 2 3 2 C3.33 3.65 3.66 5.3 4 7 C2.68 7 1.36 7 0 7 C-1.125 2.25 -1.125 2.25 0 0 Z " fill="#7DA3DC" transform="translate(140,25)"/>
<path d="M0 0 C0.33 0.66 0.66 1.32 1 2 C0.0625 4.625 0.0625 4.625 -1 7 C-2.32 7 -3.64 7 -5 7 C-5.33 6.01 -5.66 5.02 -6 4 C-5.34 3.34 -4.68 2.68 -4 2 C-4 2.99 -4 3.98 -4 5 C-3.34 5 -2.68 5 -2 5 C-1.34 3.35 -0.68 1.7 0 0 Z " fill="#DCB77E" transform="translate(16,75)"/>
<path d="M0 0 C0.99 0 1.98 0 3 0 C2.625 2.9375 2.625 2.9375 2 6 C1.01 6.495 1.01 6.495 0 7 C0 6.01 0 5.02 0 4 C-0.66 4.66 -1.32 5.32 -2 6 C-1.125 1.125 -1.125 1.125 0 0 Z " fill="#DBB985" transform="translate(73,71)"/>
<path d="M0 0 C0.33 0.66 0.66 1.32 1 2 C1.66 2 2.32 2 3 2 C3 3.32 3 4.64 3 6 C0.69 5.67 -1.62 5.34 -4 5 C-3.01 4.34 -2.02 3.68 -1 3 C-0.67 2.01 -0.34 1.02 0 0 Z " fill="#D1E1F2" transform="translate(162,33)"/>
<path d="M0 0 C1.32 0.33 2.64 0.66 4 1 C3.67 5.95 3.34 10.9 3 16 C2.67 16 2.34 16 2 16 C2 11.38 2 6.76 2 2 C1.34 2 0.68 2 0 2 C0 1.34 0 0.68 0 0 Z " fill="#4C78C5" transform="translate(58,1)"/>
<path d="M0 0 C0.66 0 1.32 0 2 0 C2 1.65 2 3.3 2 5 C2.66 5 3.32 5 4 5 C4 5.66 4 6.32 4 7 C2.35 7.33 0.7 7.66 -1 8 C-0.34 7.67 0.32 7.34 1 7 C0.34 6.01 -0.32 5.02 -1 4 C-0.625 1.8125 -0.625 1.8125 0 0 Z " fill="#D8B075" transform="translate(123,74)"/>
<path d="M0 0 C0.99 0.33 1.98 0.66 3 1 C3.6875 3.0625 3.6875 3.0625 4 5 C4.99 5 5.98 5 7 5 C7 5.66 7 6.32 7 7 C5.35 6.67 3.7 6.34 2 6 C1.34 4.02 0.68 2.04 0 0 Z " fill="#4370BB" transform="translate(179,54)"/>
<path d="M0 0 C3.465 1.485 3.465 1.485 7 3 C6.01 3.495 6.01 3.495 5 4 C4.67 4.66 4.34 5.32 4 6 C4 5.34 4 4.68 4 4 C2.02 4 0.04 4 -2 4 C-1.34 3.67 -0.68 3.34 0 3 C0 2.01 0 1.02 0 0 Z " fill="#E0EDFB" transform="translate(156,39)"/>
<path d="M0 0 C2.125 0.9375 2.125 0.9375 4 2 C3.01 3.485 3.01 3.485 2 5 C1.01 5 0.02 5 -1 5 C-1.33 3.68 -1.66 2.36 -2 1 C-1.34 0.67 -0.68 0.34 0 0 Z " fill="#E6C591" transform="translate(10,73)"/>
<path d="M0 0 C1.4606285 2.64738916 2 3.89448334 2 7 C2.99 7 3.98 7 5 7 C5 7.66 5 8.32 5 9 C3.68 9 2.36 9 1 9 C-1.125 3.375 -1.125 3.375 0 0 Z " fill="#4A75C0" transform="translate(101,32)"/>
<path d="M0 0 C2.64 0 5.28 0 8 0 C7.34 1.32 6.68 2.64 6 4 C3.53199953 2.84826645 1.95216435 1.95216435 0 0 Z " fill="#F3F9FC" transform="translate(135,0)"/>
<path d="M0 0 C0.66 0.33 1.32 0.66 2 1 C1.67 2.65 1.34 4.3 1 6 C-0.65 6.33 -2.3 6.66 -4 7 C-2.68 4.69 -1.36 2.38 0 0 Z " fill="#F4E4C6" transform="translate(191,76)"/>
<path d="M0 0 C0.99 0.33 1.98 0.66 3 1 C3 2.65 3 4.3 3 6 C1.68 5.67 0.36 5.34 -1 5 C-1 2 -1 2 0 0 Z " fill="#FBF0D9" transform="translate(5,76)"/>
<path d="M0 0 C2.375 -0.1875 2.375 -0.1875 5 0 C5.66 0.99 6.32 1.98 7 3 C4.69 3 2.38 3 0 3 C0 2.01 0 1.02 0 0 Z " fill="#FCFDFC" transform="translate(83,26)"/>
<path d="M0 0 C1.98 0 3.96 0 6 0 C6 0.66 6 1.32 6 2 C5.01 2.495 5.01 2.495 4 3 C2.86649466 5.01669827 2.86649466 5.01669827 2 7 C2 5.35 2 3.7 2 2 C1.34 2 0.68 2 0 2 C0 1.34 0 0.68 0 0 Z " fill="#4172C2" transform="translate(70,23)"/>
<path d="M0 0 C0.12375 0.639375 0.2475 1.27875 0.375 1.9375 C0.684375 2.9584375 0.684375 2.9584375 1 4 C1.66 4.33 2.32 4.66 3 5 C0.69 5 -1.62 5 -4 5 C-3.67 4.01 -3.34 3.02 -3 2 C-2.67 2.33 -2.34 2.66 -2 3 C-1.34 2.01 -0.68 1.02 0 0 Z " fill="#D6B178" transform="translate(106,77)"/>
<path d="M0 0 C1.32 0 2.64 0 4 0 C4 1.32 4 2.64 4 4 C2.68 4 1.36 4 0 4 C-0.33 3.01 -0.66 2.02 -1 1 C-0.67 0.67 -0.34 0.34 0 0 Z " fill="#E7CB9C" transform="translate(197,74)"/>
<path d="M0 0 C0.33 0 0.66 0 1 0 C1 1.65 1 3.3 1 5 C1.99 5 2.98 5 4 5 C4 5.66 4 6.32 4 7 C2.02 7 0.04 7 -2 7 C-2 6.34 -2 5.68 -2 5 C-1.34 5 -0.68 5 0 5 C0 3.35 0 1.7 0 0 Z " fill="#3C6CBB" transform="translate(94,54)"/>
<path d="M0 0 C0.99 0.33 1.98 0.66 3 1 C3.33 2.65 3.66 4.3 4 6 C3.01 6.495 3.01 6.495 2 7 C2 6.01 2 5.02 2 4 C1.34 4 0.68 4 0 4 C0 2.68 0 1.36 0 0 Z " fill="#4A78C1" transform="translate(141,23)"/>
<path d="M0 0 C2.62187494 1.04874998 3.79371361 1.64931313 5.25 4.125 C5.4975 4.74375 5.745 5.3625 6 6 C5.01 6 4.02 6 3 6 C3 5.34 3 4.68 3 4 C2.01 3.67 1.02 3.34 0 3 C0 2.01 0 1.02 0 0 Z " fill="#5C86C9" transform="translate(135,1)"/>
</svg>
